<svg width="104" height="104" viewBox="0 0 104 104" fill="none" xmlns="http://www.w3.org/2000/svg">
<path d="M18.7 34.42C18.44 33.06 17.4 31.02 14.42 31.02C11.02 31.02 9.6 33.96 9.6 36.84C9.6 39.74 11.02 42.68 14.42 42.68C17.42 42.68 18.58 40.64 18.7 38.84H20.5C20.18 42 17.94 44.28 14.42 44.28C10.5 44.28 7.8 41.16 7.8 36.84C7.8 32.54 10.5 29.42 14.42 29.42C17.92 29.42 20.16 31.7 20.5 34.42H18.7ZM22.5197 29.7H24.3197V42.4H31.8197V44H22.5197V29.7ZM33.6339 29.7H35.4339V44H33.6339V29.7ZM48.6023 34.42C48.3423 33.06 47.3023 31.02 44.3223 31.02C40.9223 31.02 39.5023 33.96 39.5023 36.84C39.5023 39.74 40.9223 42.68 44.3223 42.68C47.3223 42.68 48.4823 40.64 48.6023 38.84H50.4023C50.0823 42 47.8423 44.28 44.3223 44.28C40.4023 44.28 37.7023 41.16 37.7023 36.84C37.7023 32.54 40.4023 29.42 44.3223 29.42C47.8223 29.42 50.0623 31.7 50.4023 34.42H48.6023ZM52.422 29.7H54.222V37.36L61.402 29.7H63.602L57.982 35.64L64.002 44H61.902L56.782 36.88L54.222 39.58V44H52.422V29.7ZM69.297 44V29.7H71.757L76.237 41.58H76.277L80.757 29.7H83.217V44H81.417V32.24H81.377L77.057 44H75.457L71.137 32.24H71.097V44H69.297ZM87.6986 35.8H95.0386V37.4H87.6986V42.4H96.2386V44H85.8986V29.7H95.9986V31.3H87.6986V35.8Z" fill="white"/>
<path d="M54.188 75.628L52.676 74.256L57.576 69.048H41.84V67.088H57.576L52.676 61.88L54.188 60.508L61.188 68.068L54.188 75.628Z" fill="white"/>
</svg>
