<svg width="104" height="104" viewBox="0 0 104 104" fill="none" xmlns="http://www.w3.org/2000/svg">
<path d="M9.84 44V29.7H15.02C18.96 29.7 21.38 32.26 21.38 36.86C21.38 41.46 18.96 44 15.02 44H9.84ZM11.64 31.3V42.4H15.02C18.66 42.4 19.58 39.66 19.58 36.86C19.58 34.06 18.66 31.3 15.02 31.3H11.64ZM23.5119 44V29.7H29.3119C32.1319 29.7 34.0319 31.22 34.0319 33.76C34.0319 35.82 33.0519 36.96 31.4719 37.36V37.4C34.6519 38.02 33.4919 43.64 34.2319 43.88V44H32.2919C31.6719 43.4 33.0319 38.22 29.4119 38.22H25.3119V44H23.5119ZM25.3119 31.3V36.62H28.8919C30.3719 36.62 32.2319 36.44 32.2319 33.96C32.2319 31.48 30.3719 31.3 28.8919 31.3H25.3119ZM44.4481 40.42H38.1481L36.8881 44H35.0281L40.3081 29.7H42.3081L47.5681 44H45.7081L44.4481 40.42ZM38.7481 38.82H43.8681L41.3281 31.36H41.2881L38.7481 38.82ZM58.7342 34.02C58.3142 31.98 56.6742 31.02 54.5142 31.02C51.1142 31.02 49.6742 34.16 49.6742 36.84C49.6742 39.54 50.7142 42.68 54.3142 42.68C56.8742 42.68 58.9742 40.84 58.9742 38.16H54.3142V36.56H60.7742V44H59.5742L58.9742 41.98H58.9342C57.8542 43.48 56.5142 44.28 54.3142 44.28C50.1542 44.28 47.8742 41.16 47.8742 36.84C47.8742 32.54 50.5542 29.42 54.5142 29.42C58.1342 29.42 60.0342 31.3 60.5342 34.02H58.7342ZM67.2619 44V29.7H69.7219L74.2019 41.58H74.2419L78.7219 29.7H81.1819V44H79.3819V32.24H79.3419L75.0219 44H73.4219L69.1019 32.24H69.0619V44H67.2619ZM85.6634 35.8H93.0034V37.4H85.6634V42.4H94.2034V44H83.8634V29.7H93.9634V31.3H85.6634V35.8Z" fill="white"/>
<path d="M60.08 60.508L67.08 68.068L60.08 75.628L58.568 74.256L63.468 69.048H40.452L45.352 74.256L43.84 75.628L36.84 68.068L43.84 60.508L45.352 61.88L40.452 67.088H63.468L58.568 61.88L60.08 60.508Z" fill="white"/>
</svg>
