<?xml version="1.0" encoding="utf-8"?>
<!-- Generator: Adobe Illustrator 27.0.1, SVG Export Plug-In . SVG Version: 6.00 Build 0)  -->
<svg version="1.1" id="Ebene_1" xmlns="http://www.w3.org/2000/svg" xmlns:xlink="http://www.w3.org/1999/xlink" x="0px" y="0px"
	 viewBox="0 0 20.3 16.3" style="enable-background:new 0 0 20.3 16.3;" xml:space="preserve">
<g>
	<path d="M4.9,8.2c0-2.7,1.6-4.3,3-4.3c0.8,0,1.7,0.5,2.3,1.6c0.6-1,1.5-1.6,2.3-1.6c1.4,0,3,1.6,3,4.3c0,2.6-1.6,4.2-3,4.2
		c-0.8,0-1.7-0.5-2.4-1.5c-0.6,1-1.5,1.5-2.3,1.5C6.4,12.4,4.9,10.8,4.9,8.2z M7.8,11.7c0.7,0,1.5-0.6,1.9-1.7
		C9.6,9.4,9.5,8.8,9.5,8.2c0-0.7,0.1-1.3,0.3-1.8C9.4,5.2,8.6,4.6,7.8,4.6C7,4.6,6,5.5,5.7,7.2c0.2-0.6,0.6-0.9,1-0.9
		c0.5,0,1.1,0.6,1.1,2c0,1.2-0.6,1.9-1.1,1.9c-0.4,0-0.8-0.3-1-0.9C6,10.8,7,11.7,7.8,11.7z M12.5,11.7c1,0,2.2-1.1,2.2-3.5
		c0-2.4-1.1-3.6-2.2-3.6c-0.9,0-1.8,0.8-2.1,2.6c0.2-0.6,0.6-0.9,1-0.9c0.5,0,1.1,0.6,1.1,2c0,1.2-0.6,1.9-1.1,1.9
		c-0.4,0-0.8-0.3-1-0.9C10.7,10.8,11.6,11.7,12.5,11.7z"/>
</g>
</svg>
