<?xml version="1.0" encoding="utf-8"?>
<!-- Generator: Adobe Illustrator 27.0.1, SVG Export Plug-In . SVG Version: 6.00 Build 0)  -->
<svg version="1.1" id="Ebene_1" xmlns="http://www.w3.org/2000/svg" xmlns:xlink="http://www.w3.org/1999/xlink" x="0px" y="0px"
	 viewBox="0 0 20.3 16.3" style="enable-background:new 0 0 20.3 16.3;" xml:space="preserve">
<style type="text/css">
	.st0{fill:#FFFFFF;}
</style>
<g>
	<path class="st0" d="M8.7,12.4l-0.1-1c-0.4-0.6-0.9-1.1-1.5-1.3C6.9,10,6.7,10,6.4,9.9C5.8,9.8,5.1,9.7,5.3,8.9
		c0.3-1.1,1.6-1.2,2.4-0.7c0.1,0.1,0.2,0.1,0.3,0.1C8,8.2,8,8.1,8,7.6L8,4c0-1.1,1.7-1.3,1.7,0l0.1,2c0.1,0,0.2,0,0.3,0
		c0.2,0,0.3,0,0.5,0.1c0.1-0.1,0.3-0.1,0.6-0.1c0.2,0,0.4,0.1,0.6,0.2C11.8,6,11.9,6,12,6c0.7,0,1,0.7,1,1.4c0,0.4,0,0.6,0,0.9
		c-0.1,1-0.1,1.7-0.7,2.5l0.3,1.2c-0.1,0.6-0.6,1.2-1.8,1.3C9.6,13.3,8.9,12.9,8.7,12.4z M7.4,8.7C6.8,8.4,6,8.4,5.9,9
		C5.8,9.2,6,9.3,6.5,9.3c0.3,0,0.6,0.1,0.8,0.2c0.7,0.3,1.4,1,1.8,1.7l0.1,1c0.2,0.2,0.6,0.4,1.4,0.4c0.8-0.1,1.2-0.4,1.3-0.7
		l-0.4-1.4c0.7-0.7,0.7-1.3,0.8-2.4c0-0.2,0-0.5,0-0.8c0-0.5-0.1-0.8-0.4-0.8c-0.1,0-0.2,0-0.3,0.1h-0.2c-0.1-0.2-0.3-0.2-0.4-0.2
		c-0.2,0-0.3,0-0.4,0.2h-0.2c-0.1-0.2-0.2-0.2-0.3-0.2c-0.2,0-0.3,0-0.3,0.2l-0.5,0L9.1,4c0-0.5-0.6-0.5-0.6,0l0.1,3.6
		c0,0.6,0,1.1-0.3,1.3C8.1,9.1,7.8,8.9,7.4,8.7z"/>
</g>
</svg>
