<?xml version="1.0" encoding="utf-8"?>
<!-- Generator: Adobe Illustrator 27.8.1, SVG Export Plug-In . SVG Version: 6.00 Build 0)  -->
<svg version="1.1" id="Ebene_1" xmlns="http://www.w3.org/2000/svg" xmlns:xlink="http://www.w3.org/1999/xlink" x="0px" y="0px"
	 viewBox="0 0 178.3 45.1" style="enable-background:new 0 0 178.3 45.1;" xml:space="preserve">
<style type="text/css">
	.st0{fill:#FFFFFF;}
</style>
<g>
	<g>
		<g>
			<g>
				<path class="st0" d="M173.2,45.1H5.1c-2.8,0-5.1-2.3-5.1-5.1V5.1C0,2.3,2.3,0,5.1,0h148c13.8,0,25.1,11.3,25.1,25.1v14.8
					C178.3,42.7,176,45.1,173.2,45.1z M5.1,1.4c-2.1,0-3.7,1.7-3.7,3.7v34.8c0,2.1,1.7,3.7,3.7,3.7h168c2.1,0,3.7-1.7,3.7-3.7V25.1
					c0-13.1-10.6-23.7-23.7-23.7H5.1z"/>
			</g>
		</g>
		<g>
			<g>
				<path class="st0" d="M5.1,8.8C5.5,8,6,7.3,6.6,6.7C7.3,6.1,8,5.6,8.9,5.3c0.9-0.3,1.8-0.5,2.7-0.5c0.9,0,1.8,0.2,2.7,0.5
					c0.9,0.3,1.6,0.8,2.3,1.4c0.7,0.6,1.2,1.3,1.6,2.2c0.4,0.9,0.6,1.8,0.6,2.9c0,1.1-0.2,2-0.6,2.9c-0.4,0.9-0.9,1.6-1.6,2.2
					c-0.7,0.6-1.4,1.1-2.3,1.4c-0.9,0.3-1.8,0.5-2.7,0.5c-0.9,0-1.8-0.2-2.7-0.5c-0.9-0.3-1.6-0.8-2.3-1.4c-0.7-0.6-1.2-1.3-1.6-2.2
					c-0.4-0.9-0.6-1.8-0.6-2.9C4.5,10.7,4.7,9.7,5.1,8.8z M6.8,13.9c0.3,0.7,0.6,1.2,1.1,1.7c0.5,0.5,1,0.9,1.7,1.1
					c0.6,0.3,1.3,0.4,2,0.4c0.7,0,1.4-0.1,2-0.4c0.6-0.3,1.2-0.7,1.7-1.1c0.5-0.5,0.8-1.1,1.1-1.7c0.3-0.7,0.4-1.4,0.4-2.2
					c0-0.8-0.1-1.5-0.4-2.2c-0.3-0.7-0.7-1.2-1.1-1.7c-0.5-0.5-1-0.9-1.7-1.1c-0.6-0.3-1.3-0.4-2-0.4c-0.7,0-1.4,0.1-2,0.4
					C8.9,6.9,8.4,7.3,7.9,7.8C7.4,8.3,7.1,8.9,6.8,9.5c-0.3,0.7-0.4,1.4-0.4,2.2C6.4,12.5,6.5,13.2,6.8,13.9z M14.8,14.1
					c-0.2,0.4-0.5,0.7-0.8,0.9c-0.3,0.3-0.6,0.4-1,0.6c-0.4,0.1-0.8,0.2-1.2,0.2c-0.6,0-1.2-0.1-1.6-0.3C9.7,15.3,9.3,15,9,14.6
					c-0.3-0.4-0.6-0.8-0.8-1.3c-0.2-0.5-0.3-1-0.3-1.6c0-0.6,0.1-1.1,0.3-1.7c0.2-0.5,0.4-0.9,0.8-1.3c0.3-0.4,0.8-0.7,1.2-0.9
					c0.5-0.2,1-0.3,1.7-0.3c0.4,0,0.8,0.1,1.2,0.2s0.7,0.3,1,0.5c0.3,0.2,0.5,0.5,0.7,0.9c0.2,0.4,0.3,0.8,0.4,1.2h-1.4
					c-0.1-0.4-0.3-0.8-0.7-1C12.7,9.1,12.3,9,11.8,9c-0.7,0-1.2,0.2-1.6,0.7c-0.4,0.5-0.6,1.1-0.6,1.9c0,0.4,0.1,0.7,0.2,1
					c0.1,0.3,0.3,0.6,0.4,0.9c0.2,0.2,0.4,0.4,0.7,0.6s0.6,0.2,0.9,0.2c0.5,0,0.9-0.1,1.3-0.4c0.3-0.3,0.5-0.6,0.6-1.1h1.5
					C15.2,13.3,15,13.7,14.8,14.1z"/>
				<path class="st0" d="M28.8,8.6c-0.2-0.3-0.4-0.5-0.7-0.7c-0.3-0.2-0.6-0.4-0.9-0.5s-0.7-0.2-1-0.2c-0.7,0-1.2,0.1-1.7,0.4
					c-0.5,0.3-0.8,0.6-1.1,1c-0.3,0.4-0.5,0.9-0.6,1.5c-0.1,0.5-0.2,1.1-0.2,1.7c0,0.6,0.1,1.1,0.2,1.6c0.1,0.5,0.3,1,0.6,1.4
					c0.3,0.4,0.7,0.8,1.1,1c0.5,0.3,1,0.4,1.7,0.4c0.9,0,1.6-0.3,2.1-0.8c0.5-0.5,0.8-1.3,0.9-2.2h2.8c-0.1,0.8-0.3,1.6-0.6,2.2
					c-0.3,0.7-0.7,1.2-1.2,1.7c-0.5,0.5-1.1,0.8-1.8,1.1c-0.7,0.2-1.4,0.4-2.2,0.4c-1,0-1.9-0.2-2.7-0.5c-0.8-0.4-1.5-0.8-2.1-1.5
					c-0.6-0.6-1-1.3-1.3-2.2c-0.3-0.8-0.4-1.7-0.4-2.7c0-1,0.1-1.9,0.4-2.8c0.3-0.8,0.7-1.6,1.3-2.2c0.6-0.6,1.2-1.1,2.1-1.5
					c0.8-0.4,1.7-0.5,2.7-0.5c0.7,0,1.4,0.1,2.1,0.3C29,5.3,29.5,5.6,30.1,6c0.5,0.4,0.9,0.9,1.3,1.5c0.3,0.6,0.5,1.3,0.6,2h-2.8
					C29.1,9.2,29,8.9,28.8,8.6z"/>
				<path class="st0" d="M33.9,9c0.3-0.8,0.7-1.6,1.3-2.2c0.6-0.6,1.2-1.1,2.1-1.5C38.1,5,39,4.8,40,4.8c1,0,1.9,0.2,2.7,0.5
					c0.8,0.4,1.5,0.9,2,1.5c0.6,0.6,1,1.4,1.3,2.2c0.3,0.8,0.4,1.8,0.4,2.8c0,1-0.1,1.9-0.4,2.7c-0.3,0.8-0.7,1.6-1.3,2.2
					c-0.6,0.6-1.2,1.1-2,1.5c-0.8,0.4-1.7,0.5-2.7,0.5c-1,0-1.9-0.2-2.7-0.5c-0.8-0.4-1.5-0.8-2.1-1.5c-0.6-0.6-1-1.3-1.3-2.2
					c-0.3-0.8-0.4-1.7-0.4-2.7C33.5,10.8,33.6,9.9,33.9,9z M36.6,13.4c0.1,0.5,0.3,1,0.6,1.4c0.3,0.4,0.7,0.8,1.1,1
					c0.5,0.3,1,0.4,1.7,0.4c0.7,0,1.2-0.1,1.7-0.4c0.5-0.3,0.8-0.6,1.1-1c0.3-0.4,0.5-0.9,0.6-1.4c0.1-0.5,0.2-1.1,0.2-1.6
					c0-0.6-0.1-1.1-0.2-1.7c-0.1-0.5-0.3-1-0.6-1.5c-0.3-0.4-0.7-0.8-1.1-1c-0.5-0.3-1-0.4-1.7-0.4c-0.7,0-1.2,0.1-1.7,0.4
					c-0.5,0.3-0.8,0.6-1.1,1c-0.3,0.4-0.5,0.9-0.6,1.5c-0.1,0.5-0.2,1.1-0.2,1.7C36.4,12.3,36.5,12.9,36.6,13.4z"/>
				<path class="st0" d="M54.5,5.1c0.8,0,1.5,0.1,2.1,0.4s1.1,0.6,1.4,1c0.4,0.4,0.6,0.8,0.8,1.4C59,8.3,59,8.8,59,9.3
					c0,0.5-0.1,1.1-0.2,1.6c-0.2,0.5-0.4,1-0.8,1.4c-0.4,0.4-0.8,0.7-1.4,1c-0.6,0.2-1.3,0.4-2.1,0.4h-3.1v4.8h-2.9V5.1H54.5z
					 M53.7,11.3c0.3,0,0.7,0,1-0.1c0.3,0,0.6-0.1,0.8-0.3c0.2-0.1,0.4-0.3,0.6-0.6c0.1-0.3,0.2-0.6,0.2-1c0-0.4-0.1-0.8-0.2-1
					c-0.1-0.3-0.3-0.5-0.6-0.6c-0.2-0.1-0.5-0.2-0.8-0.3c-0.3,0-0.6-0.1-1-0.1h-2.3v4H53.7z"/>
				<path class="st0" d="M59.4,5.1h3.3l3.1,5.2l3.1-5.2h3.2l-4.9,8.2v5.1h-2.9v-5.2L59.4,5.1z"/>
				<path class="st0" d="M80.4,5.1c0.6,0,1.1,0.1,1.6,0.3c0.5,0.2,0.9,0.5,1.2,0.8c0.3,0.3,0.6,0.7,0.8,1.2c0.2,0.4,0.3,0.9,0.3,1.4
					c0,0.8-0.2,1.5-0.5,2c-0.3,0.6-0.9,1-1.6,1.3v0c0.4,0.1,0.7,0.3,0.9,0.5c0.2,0.2,0.4,0.4,0.6,0.7c0.1,0.3,0.3,0.6,0.3,0.9
					s0.1,0.7,0.1,1c0,0.2,0,0.5,0,0.7c0,0.3,0,0.6,0.1,0.9c0,0.3,0.1,0.6,0.1,0.8c0.1,0.3,0.2,0.5,0.3,0.7h-2.9
					c-0.2-0.4-0.3-0.9-0.3-1.5c0-0.6-0.1-1.1-0.2-1.7c-0.1-0.7-0.3-1.2-0.6-1.5c-0.3-0.3-0.8-0.5-1.6-0.5h-2.9v5.2h-2.9V5.1H80.4z
					 M79.3,11.1c0.7,0,1.2-0.1,1.5-0.4c0.3-0.3,0.5-0.8,0.5-1.4c0-0.6-0.2-1.1-0.5-1.4c-0.3-0.3-0.8-0.4-1.5-0.4h-3.2v3.7H79.3z"/>
				<path class="st0" d="M89.6,5.1v13.2h-2.9V5.1H89.6z"/>
				<path class="st0" d="M100,18.2c-0.6,0.3-1.3,0.4-1.9,0.4c-1,0-1.9-0.2-2.7-0.5c-0.8-0.4-1.5-0.8-2.1-1.5c-0.6-0.6-1-1.3-1.3-2.2
					c-0.3-0.8-0.4-1.7-0.4-2.7c0-1,0.1-1.9,0.4-2.8c0.3-0.8,0.7-1.6,1.3-2.2c0.6-0.6,1.2-1.1,2.1-1.5C96.1,5,97,4.8,98.1,4.8
					c0.7,0,1.3,0.1,2,0.3c0.6,0.2,1.2,0.5,1.7,0.9c0.5,0.4,0.9,0.9,1.3,1.5c0.3,0.6,0.5,1.2,0.6,2h-2.8c-0.2-0.7-0.5-1.3-1-1.7
					s-1.1-0.6-1.8-0.6c-0.7,0-1.2,0.1-1.7,0.4c-0.5,0.3-0.8,0.6-1.1,1c-0.3,0.4-0.5,0.9-0.6,1.5c-0.1,0.5-0.2,1.1-0.2,1.7
					c0,0.6,0.1,1.1,0.2,1.6c0.1,0.5,0.3,1,0.6,1.4c0.3,0.4,0.7,0.8,1.1,1c0.5,0.3,1,0.4,1.7,0.4c1,0,1.7-0.2,2.2-0.7
					c0.5-0.5,0.8-1.2,0.9-2.1h-2.9v-2.2h5.6v7.2H102l-0.3-1.5C101.2,17.5,100.6,18,100,18.2z"/>
				<path class="st0" d="M109.1,5.1v5.1h5.4V5.1h2.9v13.2h-2.9v-5.7h-5.4v5.7h-2.9V5.1H109.1z"/>
				<path class="st0" d="M118.9,7.5V5.1h10.9v2.4h-4v10.8h-2.9V7.5H118.9z"/>
			</g>
			<g>
				<path class="st0" d="M8.3,19.8l2.3,6.3H9.2l-0.5-1.4H6.4l-0.5,1.4H4.5l2.4-6.3H8.3z M8.3,23.7l-0.8-2.3h0l-0.8,2.3H8.3z"/>
				<path class="st0" d="M12.3,19.8v6.3h-1.2v-6.3H12.3z"/>
				<path class="st0" d="M14.6,19.8v6.3h-1.2v-6.3H14.6z"/>
				<path class="st0" d="M21.5,19.8c0.3,0,0.5,0,0.8,0.1c0.2,0.1,0.4,0.2,0.6,0.4c0.2,0.2,0.3,0.3,0.4,0.5c0.1,0.2,0.1,0.4,0.1,0.7
					c0,0.4-0.1,0.7-0.2,1c-0.2,0.3-0.4,0.5-0.8,0.6v0c0.2,0,0.3,0.1,0.4,0.2c0.1,0.1,0.2,0.2,0.3,0.3c0.1,0.1,0.1,0.3,0.2,0.4
					c0,0.2,0.1,0.3,0.1,0.5c0,0.1,0,0.2,0,0.4c0,0.1,0,0.3,0,0.4c0,0.1,0,0.3,0.1,0.4c0,0.1,0.1,0.2,0.1,0.3h-1.4
					c-0.1-0.2-0.1-0.4-0.1-0.7c0-0.3,0-0.5-0.1-0.8c0-0.3-0.1-0.6-0.3-0.7c-0.2-0.2-0.4-0.2-0.7-0.2h-1.4v2.4h-1.4v-6.3H21.5z
					 M21,22.6c0.3,0,0.6-0.1,0.7-0.2c0.2-0.1,0.2-0.4,0.2-0.7c0-0.3-0.1-0.5-0.2-0.7c-0.2-0.1-0.4-0.2-0.7-0.2h-1.5v1.8H21z"/>
				<path class="st0" d="M24.4,20.8v-1h1.2v1H24.4z M25.6,21.5v4.5h-1.2v-4.5H25.6z"/>
				<path class="st0" d="M30.9,26.4c0,0.2-0.2,0.5-0.3,0.7c-0.2,0.2-0.4,0.4-0.7,0.5c-0.3,0.1-0.7,0.2-1.2,0.2c-0.2,0-0.4,0-0.7-0.1
					c-0.2-0.1-0.4-0.1-0.6-0.3c-0.2-0.1-0.3-0.3-0.5-0.5c-0.1-0.2-0.2-0.4-0.2-0.7h1.2c0.1,0.2,0.2,0.4,0.3,0.5
					c0.2,0.1,0.4,0.1,0.6,0.1c0.4,0,0.6-0.1,0.8-0.3c0.2-0.2,0.2-0.5,0.2-0.8v-0.6h0c-0.1,0.2-0.3,0.4-0.6,0.5
					c-0.2,0.1-0.5,0.2-0.8,0.2c-0.3,0-0.6-0.1-0.9-0.2c-0.2-0.1-0.4-0.3-0.6-0.5c-0.2-0.2-0.3-0.5-0.3-0.7c-0.1-0.3-0.1-0.6-0.1-0.9
					c0-0.3,0-0.6,0.1-0.8c0.1-0.3,0.2-0.5,0.4-0.7c0.2-0.2,0.4-0.4,0.6-0.5c0.2-0.1,0.5-0.2,0.8-0.2c0.3,0,0.6,0.1,0.8,0.2
					c0.2,0.1,0.4,0.3,0.6,0.6h0v-0.6H31v4.2C31,26,30.9,26.2,30.9,26.4z M29.2,24.9c0.1-0.1,0.2-0.2,0.3-0.3
					c0.1-0.1,0.2-0.3,0.2-0.4c0-0.1,0.1-0.3,0.1-0.5c0-0.2,0-0.4-0.1-0.5c0-0.2-0.1-0.3-0.2-0.4c-0.1-0.1-0.2-0.2-0.3-0.3
					c-0.1-0.1-0.3-0.1-0.5-0.1c-0.2,0-0.3,0-0.5,0.1c-0.1,0.1-0.2,0.2-0.3,0.3c-0.1,0.1-0.1,0.3-0.2,0.4c0,0.2-0.1,0.3-0.1,0.5
					c0,0.2,0,0.3,0,0.5c0,0.2,0.1,0.3,0.2,0.4c0.1,0.1,0.2,0.2,0.3,0.3c0.1,0.1,0.3,0.1,0.5,0.1C28.9,25,29,25,29.2,24.9z"/>
				<path class="st0" d="M33.2,19.8v2.4h0c0.2-0.3,0.4-0.5,0.6-0.6c0.2-0.1,0.5-0.2,0.7-0.2c0.3,0,0.6,0,0.8,0.1s0.4,0.2,0.5,0.4
					c0.1,0.2,0.2,0.4,0.3,0.6c0,0.2,0.1,0.5,0.1,0.8v2.8H35v-2.6c0-0.4-0.1-0.7-0.2-0.8c-0.1-0.2-0.3-0.3-0.6-0.3
					c-0.3,0-0.6,0.1-0.7,0.3c-0.2,0.2-0.2,0.5-0.2,1v2.4H32v-6.3H33.2z"/>
				<path class="st0" d="M39.7,21.5v0.8h-0.9v2.2c0,0.2,0,0.4,0.1,0.4c0.1,0.1,0.2,0.1,0.4,0.1c0.1,0,0.1,0,0.2,0c0.1,0,0.1,0,0.2,0
					v1c-0.1,0-0.2,0-0.4,0c-0.1,0-0.3,0-0.4,0c-0.2,0-0.4,0-0.5,0c-0.2,0-0.3-0.1-0.5-0.2c-0.1-0.1-0.2-0.2-0.3-0.3
					c-0.1-0.1-0.1-0.3-0.1-0.6v-2.7h-0.8v-0.8h0.8v-1.4h1.2v1.4H39.7z"/>
				<path class="st0" d="M41.3,24.9c0.1,0.1,0.1,0.2,0.2,0.2c0.1,0.1,0.2,0.1,0.3,0.1c0.1,0,0.2,0,0.4,0c0.1,0,0.2,0,0.3,0
					c0.1,0,0.2-0.1,0.3-0.1c0.1,0,0.1-0.1,0.2-0.2C43,25,43,24.9,43,24.8c0-0.2-0.1-0.3-0.4-0.4c-0.2-0.1-0.6-0.2-1-0.3
					c-0.2,0-0.4-0.1-0.5-0.1s-0.3-0.1-0.5-0.2c-0.1-0.1-0.2-0.2-0.3-0.3c-0.1-0.1-0.1-0.3-0.1-0.5c0-0.3,0.1-0.5,0.2-0.7
					c0.1-0.2,0.3-0.3,0.5-0.4c0.2-0.1,0.4-0.2,0.6-0.2c0.2,0,0.5-0.1,0.7-0.1s0.5,0,0.7,0.1c0.2,0,0.4,0.1,0.6,0.2
					c0.2,0.1,0.3,0.3,0.5,0.4c0.1,0.2,0.2,0.4,0.2,0.7h-1.2c0-0.2-0.1-0.4-0.3-0.5c-0.2-0.1-0.4-0.1-0.6-0.1c-0.1,0-0.1,0-0.2,0
					c-0.1,0-0.2,0-0.2,0.1s-0.1,0.1-0.2,0.1c0,0.1-0.1,0.1-0.1,0.2c0,0.1,0,0.2,0.1,0.3c0.1,0.1,0.2,0.1,0.3,0.2
					c0.1,0,0.3,0.1,0.5,0.1c0.2,0,0.3,0.1,0.5,0.1c0.2,0,0.4,0.1,0.5,0.1c0.2,0.1,0.3,0.1,0.5,0.2c0.1,0.1,0.2,0.2,0.3,0.4
					c0.1,0.1,0.1,0.3,0.1,0.5c0,0.3-0.1,0.5-0.2,0.8c-0.1,0.2-0.3,0.4-0.5,0.5c-0.2,0.1-0.4,0.2-0.7,0.3c-0.2,0.1-0.5,0.1-0.8,0.1
					c-0.3,0-0.5,0-0.8-0.1c-0.3-0.1-0.5-0.1-0.7-0.3c-0.2-0.1-0.4-0.3-0.5-0.5c-0.1-0.2-0.2-0.5-0.2-0.8h1.2
					C41.2,24.7,41.3,24.9,41.3,24.9z"/>
				<path class="st0" d="M50.9,19.8c0.3,0,0.5,0,0.8,0.1c0.2,0.1,0.4,0.2,0.6,0.4c0.2,0.2,0.3,0.3,0.4,0.5c0.1,0.2,0.1,0.4,0.1,0.7
					c0,0.4-0.1,0.7-0.2,1c-0.2,0.3-0.4,0.5-0.8,0.6v0c0.2,0,0.3,0.1,0.4,0.2c0.1,0.1,0.2,0.2,0.3,0.3c0.1,0.1,0.1,0.3,0.2,0.4
					c0,0.2,0.1,0.3,0.1,0.5c0,0.1,0,0.2,0,0.4c0,0.1,0,0.3,0,0.4c0,0.1,0,0.3,0.1,0.4c0,0.1,0.1,0.2,0.1,0.3h-1.4
					c-0.1-0.2-0.1-0.4-0.1-0.7c0-0.3,0-0.5-0.1-0.8c0-0.3-0.1-0.6-0.3-0.7c-0.2-0.2-0.4-0.2-0.7-0.2h-1.4v2.4h-1.4v-6.3H50.9z
					 M50.4,22.6c0.3,0,0.6-0.1,0.7-0.2c0.2-0.1,0.2-0.4,0.2-0.7c0-0.3-0.1-0.5-0.2-0.7c-0.2-0.1-0.4-0.2-0.7-0.2h-1.5v1.8H50.4z"/>
				<path class="st0" d="M55.1,25c0.2,0.2,0.5,0.3,0.8,0.3c0.3,0,0.5-0.1,0.6-0.2c0.2-0.1,0.3-0.3,0.3-0.4H58
					c-0.2,0.5-0.4,0.9-0.8,1.2c-0.4,0.2-0.8,0.4-1.3,0.4c-0.4,0-0.7-0.1-1-0.2s-0.5-0.3-0.7-0.5c-0.2-0.2-0.4-0.5-0.5-0.8
					c-0.1-0.3-0.2-0.6-0.2-1c0-0.3,0.1-0.7,0.2-0.9c0.1-0.3,0.3-0.5,0.5-0.8c0.2-0.2,0.4-0.4,0.7-0.5c0.3-0.1,0.6-0.2,0.9-0.2
					c0.4,0,0.7,0.1,1,0.2c0.3,0.1,0.5,0.4,0.7,0.6c0.2,0.3,0.3,0.5,0.4,0.9c0.1,0.3,0.1,0.7,0.1,1h-3.3C54.8,24.5,54.9,24.8,55.1,25
					z M56.5,22.6c-0.1-0.2-0.4-0.2-0.7-0.2c-0.2,0-0.4,0-0.5,0.1s-0.2,0.2-0.3,0.3c-0.1,0.1-0.1,0.2-0.2,0.3c0,0.1-0.1,0.2-0.1,0.3
					h2C56.8,23,56.6,22.8,56.5,22.6z"/>
				<path class="st0" d="M59.8,24.9c0.1,0.1,0.1,0.2,0.2,0.2c0.1,0.1,0.2,0.1,0.3,0.1c0.1,0,0.2,0,0.4,0c0.1,0,0.2,0,0.3,0
					c0.1,0,0.2-0.1,0.3-0.1c0.1,0,0.1-0.1,0.2-0.2c0.1-0.1,0.1-0.2,0.1-0.3c0-0.2-0.1-0.3-0.4-0.4c-0.2-0.1-0.6-0.2-1-0.3
					c-0.2,0-0.4-0.1-0.5-0.1s-0.3-0.1-0.5-0.2c-0.1-0.1-0.2-0.2-0.3-0.3c-0.1-0.1-0.1-0.3-0.1-0.5c0-0.3,0.1-0.5,0.2-0.7
					c0.1-0.2,0.3-0.3,0.5-0.4c0.2-0.1,0.4-0.2,0.6-0.2c0.2,0,0.5-0.1,0.7-0.1s0.5,0,0.7,0.1c0.2,0,0.4,0.1,0.6,0.2
					c0.2,0.1,0.3,0.3,0.5,0.4c0.1,0.2,0.2,0.4,0.2,0.7h-1.2c0-0.2-0.1-0.4-0.3-0.5c-0.2-0.1-0.4-0.1-0.6-0.1c-0.1,0-0.1,0-0.2,0
					c-0.1,0-0.2,0-0.2,0.1S60,22.4,60,22.4c0,0.1-0.1,0.1-0.1,0.2c0,0.1,0,0.2,0.1,0.3c0.1,0.1,0.2,0.1,0.3,0.2
					c0.1,0,0.3,0.1,0.5,0.1c0.2,0,0.3,0.1,0.5,0.1c0.2,0,0.4,0.1,0.5,0.1c0.2,0.1,0.3,0.1,0.5,0.2c0.1,0.1,0.2,0.2,0.3,0.4
					s0.1,0.3,0.1,0.5c0,0.3-0.1,0.5-0.2,0.8c-0.1,0.2-0.3,0.4-0.5,0.5s-0.4,0.2-0.7,0.3c-0.2,0.1-0.5,0.1-0.8,0.1
					c-0.3,0-0.5,0-0.8-0.1c-0.3-0.1-0.5-0.1-0.7-0.3c-0.2-0.1-0.4-0.3-0.5-0.5c-0.1-0.2-0.2-0.5-0.2-0.8h1.2
					C59.8,24.7,59.8,24.9,59.8,24.9z"/>
				<path class="st0" d="M64.8,25c0.2,0.2,0.5,0.3,0.8,0.3c0.3,0,0.5-0.1,0.6-0.2c0.2-0.1,0.3-0.3,0.3-0.4h1.1
					c-0.2,0.5-0.4,0.9-0.8,1.2c-0.4,0.2-0.8,0.4-1.3,0.4c-0.4,0-0.7-0.1-1-0.2c-0.3-0.1-0.5-0.3-0.7-0.5c-0.2-0.2-0.4-0.5-0.5-0.8
					c-0.1-0.3-0.2-0.6-0.2-1c0-0.3,0.1-0.7,0.2-0.9c0.1-0.3,0.3-0.5,0.5-0.8c0.2-0.2,0.4-0.4,0.7-0.5c0.3-0.1,0.6-0.2,0.9-0.2
					c0.4,0,0.7,0.1,1,0.2c0.3,0.1,0.5,0.4,0.7,0.6c0.2,0.3,0.3,0.5,0.4,0.9c0.1,0.3,0.1,0.7,0.1,1h-3.3C64.6,24.5,64.7,24.8,64.8,25
					z M66.3,22.6c-0.1-0.2-0.4-0.2-0.7-0.2c-0.2,0-0.4,0-0.5,0.1s-0.2,0.2-0.3,0.3c-0.1,0.1-0.1,0.2-0.2,0.3c0,0.1-0.1,0.2-0.1,0.3
					h2C66.5,23,66.4,22.8,66.3,22.6z"/>
				<path class="st0" d="M69.7,21.5v0.8h0c0.1-0.1,0.1-0.3,0.2-0.4c0.1-0.1,0.2-0.2,0.3-0.3c0.1-0.1,0.3-0.2,0.4-0.2
					c0.1,0,0.3-0.1,0.5-0.1c0.1,0,0.2,0,0.3,0v1.2c-0.1,0-0.1,0-0.2,0c-0.1,0-0.2,0-0.2,0c-0.2,0-0.4,0-0.6,0.1
					c-0.2,0.1-0.3,0.2-0.4,0.3s-0.2,0.3-0.2,0.5c0,0.2-0.1,0.4-0.1,0.6v2h-1.2v-4.5H69.7z"/>
				<path class="st0" d="M73.1,26.1l-1.6-4.5h1.3l1,3.1h0l1-3.1H76l-1.5,4.5H73.1z"/>
				<path class="st0" d="M77.9,25c0.2,0.2,0.5,0.3,0.8,0.3c0.3,0,0.5-0.1,0.6-0.2c0.2-0.1,0.3-0.3,0.3-0.4h1.1
					c-0.2,0.5-0.4,0.9-0.8,1.2c-0.4,0.2-0.8,0.4-1.3,0.4c-0.4,0-0.7-0.1-1-0.2c-0.3-0.1-0.5-0.3-0.7-0.5c-0.2-0.2-0.4-0.5-0.5-0.8
					c-0.1-0.3-0.2-0.6-0.2-1c0-0.3,0.1-0.7,0.2-0.9c0.1-0.3,0.3-0.5,0.5-0.8c0.2-0.2,0.4-0.4,0.7-0.5c0.3-0.1,0.6-0.2,0.9-0.2
					c0.4,0,0.7,0.1,1,0.2c0.3,0.1,0.5,0.4,0.7,0.6c0.2,0.3,0.3,0.5,0.4,0.9c0.1,0.3,0.1,0.7,0.1,1h-3.3C77.6,24.5,77.7,24.8,77.9,25
					z M79.3,22.6c-0.1-0.2-0.4-0.2-0.7-0.2c-0.2,0-0.4,0-0.5,0.1s-0.2,0.2-0.3,0.3c-0.1,0.1-0.1,0.2-0.2,0.3c0,0.1-0.1,0.2-0.1,0.3
					h2C79.5,23,79.4,22.8,79.3,22.6z"/>
				<path class="st0" d="M84.8,25.5c-0.1,0.2-0.3,0.4-0.6,0.5c-0.2,0.1-0.5,0.2-0.8,0.2c-0.3,0-0.6-0.1-0.9-0.2
					c-0.3-0.1-0.5-0.3-0.6-0.5c-0.2-0.2-0.3-0.5-0.4-0.8c-0.1-0.3-0.1-0.6-0.1-0.9c0-0.3,0-0.6,0.1-0.9c0.1-0.3,0.2-0.5,0.4-0.8
					c0.2-0.2,0.4-0.4,0.6-0.5c0.3-0.1,0.5-0.2,0.9-0.2c0.3,0,0.5,0.1,0.8,0.2c0.2,0.1,0.4,0.3,0.6,0.5h0v-2.3H86v6.3h-1.2L84.8,25.5
					L84.8,25.5z M84.7,23.3c0-0.2-0.1-0.3-0.2-0.5c-0.1-0.1-0.2-0.2-0.3-0.3c-0.1-0.1-0.3-0.1-0.5-0.1s-0.4,0-0.5,0.1
					c-0.1,0.1-0.3,0.2-0.3,0.3c-0.1,0.1-0.1,0.3-0.2,0.5c0,0.2-0.1,0.4-0.1,0.5c0,0.2,0,0.4,0.1,0.5c0,0.2,0.1,0.3,0.2,0.5
					c0.1,0.1,0.2,0.2,0.3,0.3c0.1,0.1,0.3,0.1,0.5,0.1c0.2,0,0.4,0,0.5-0.1c0.1-0.1,0.2-0.2,0.3-0.3c0.1-0.1,0.1-0.3,0.2-0.5
					c0-0.2,0.1-0.4,0.1-0.5C84.8,23.6,84.8,23.4,84.7,23.3z"/>
			</g>
		</g>
		<g>
			<path class="st0" d="M5.2,35c0,0.1,0.1,0.1,0.1,0.1c0.1,0,0.1,0.1,0.2,0.1c0.1,0,0.1,0,0.2,0c0.1,0,0.1,0,0.2,0
				c0.1,0,0.1,0,0.2-0.1c0.1,0,0.1-0.1,0.1-0.1c0,0,0.1-0.1,0.1-0.2c0-0.1,0-0.1-0.1-0.2c0,0-0.1-0.1-0.2-0.1
				c-0.1,0-0.2-0.1-0.3-0.1c-0.1,0-0.2,0-0.3-0.1c-0.1,0-0.2-0.1-0.3-0.1c-0.1,0-0.2-0.1-0.3-0.1c-0.1-0.1-0.1-0.1-0.2-0.2
				c0-0.1-0.1-0.2-0.1-0.3c0-0.1,0-0.3,0.1-0.4c0.1-0.1,0.1-0.2,0.2-0.3C5.1,33.1,5.2,33,5.3,33c0.1,0,0.2,0,0.4,0
				c0.1,0,0.3,0,0.4,0c0.1,0,0.2,0.1,0.3,0.1c0.1,0.1,0.2,0.2,0.2,0.3c0.1,0.1,0.1,0.2,0.1,0.4H6.1c0-0.1,0-0.1,0-0.2
				c0-0.1-0.1-0.1-0.1-0.1c0,0-0.1-0.1-0.2-0.1c-0.1,0-0.1,0-0.2,0c0,0-0.1,0-0.1,0c0,0-0.1,0-0.1,0.1c0,0-0.1,0.1-0.1,0.1
				c0,0,0,0.1,0,0.1c0,0.1,0,0.1,0,0.1c0,0,0.1,0.1,0.1,0.1c0.1,0,0.1,0.1,0.2,0.1C5.7,34,5.8,34,6,34.1c0,0,0.1,0,0.2,0.1
				c0.1,0,0.2,0.1,0.3,0.1c0.1,0.1,0.2,0.1,0.2,0.2c0.1,0.1,0.1,0.2,0.1,0.4c0,0.1,0,0.2-0.1,0.3c0,0.1-0.1,0.2-0.2,0.3
				c-0.1,0.1-0.2,0.1-0.3,0.2c-0.1,0-0.3,0.1-0.5,0.1c-0.1,0-0.3,0-0.4-0.1c-0.1,0-0.3-0.1-0.4-0.2c-0.1-0.1-0.2-0.2-0.2-0.3
				c-0.1-0.1-0.1-0.3-0.1-0.4h0.6C5.1,34.8,5.1,34.9,5.2,35z"/>
			<path class="st0" d="M9.1,33v0.5H7.7V34H9v0.5H7.7v0.6h1.4v0.5h-2V33H9.1z"/>
			<path class="st0" d="M11.3,35.5c-0.2,0.1-0.4,0.2-0.6,0.2c-0.2,0-0.4,0-0.5-0.1c-0.2-0.1-0.3-0.2-0.4-0.3
				c-0.1-0.1-0.2-0.3-0.3-0.4c-0.1-0.2-0.1-0.3-0.1-0.5c0-0.2,0-0.4,0.1-0.5c0.1-0.2,0.1-0.3,0.3-0.4c0.1-0.1,0.2-0.2,0.4-0.3
				c0.2-0.1,0.3-0.1,0.5-0.1c0.2,0,0.4,0,0.5,0.1c0.2,0.1,0.3,0.2,0.4,0.3c0.1,0.1,0.2,0.3,0.3,0.4c0.1,0.2,0.1,0.4,0.1,0.5
				c0,0.2,0,0.4-0.1,0.5c-0.1,0.2-0.1,0.3-0.3,0.4l0.3,0.3l-0.3,0.3L11.3,35.5z M11.3,34.9c0-0.1,0.1-0.1,0.1-0.2c0-0.1,0-0.2,0-0.4
				c0-0.1,0-0.2,0-0.3c0-0.1-0.1-0.2-0.1-0.3c-0.1-0.1-0.1-0.2-0.2-0.2s-0.2-0.1-0.3-0.1c-0.1,0-0.2,0-0.3,0.1s-0.2,0.1-0.2,0.2
				C10.1,33.8,10,33.9,10,34c0,0.1,0,0.2,0,0.3c0,0.1,0,0.2,0,0.3c0,0.1,0.1,0.2,0.1,0.3c0.1,0.1,0.1,0.2,0.2,0.2
				c0.1,0.1,0.2,0.1,0.3,0.1c0.1,0,0.1,0,0.1,0c0,0,0.1,0,0.1,0l-0.2-0.2l0.3-0.3L11.3,34.9z"/>
			<path class="st0" d="M14.3,35.4c-0.2,0.2-0.5,0.3-0.8,0.3c-0.4,0-0.6-0.1-0.8-0.3c-0.2-0.2-0.3-0.4-0.3-0.8V33H13v1.6
				c0,0.1,0,0.1,0,0.2s0,0.1,0.1,0.2c0,0.1,0.1,0.1,0.2,0.1c0.1,0,0.2,0,0.3,0c0.2,0,0.3,0,0.4-0.1C14,35,14,34.8,14,34.6V33h0.6
				v1.6C14.6,35,14.5,35.2,14.3,35.4z"/>
			<path class="st0" d="M17.1,33v0.5h-1.4V34H17v0.5h-1.3v0.6h1.4v0.5h-2V33H17.1z"/>
			<path class="st0" d="M18.1,33l1.1,1.8h0V33h0.5v2.6h-0.6l-1.1-1.8h0v1.8h-0.5V33H18.1z"/>
			<path class="st0" d="M21.9,33.7c0-0.1-0.1-0.1-0.1-0.1c-0.1,0-0.1-0.1-0.2-0.1c-0.1,0-0.1,0-0.2,0c-0.1,0-0.2,0-0.3,0.1
				s-0.2,0.1-0.2,0.2c-0.1,0.1-0.1,0.2-0.1,0.3c0,0.1,0,0.2,0,0.3c0,0.1,0,0.2,0,0.3c0,0.1,0.1,0.2,0.1,0.3c0.1,0.1,0.1,0.2,0.2,0.2
				c0.1,0.1,0.2,0.1,0.3,0.1c0.2,0,0.3-0.1,0.4-0.2c0.1-0.1,0.2-0.3,0.2-0.4h0.6c0,0.2-0.1,0.3-0.1,0.4c-0.1,0.1-0.1,0.2-0.2,0.3
				c-0.1,0.1-0.2,0.2-0.4,0.2c-0.1,0-0.3,0.1-0.4,0.1c-0.2,0-0.4,0-0.5-0.1c-0.2-0.1-0.3-0.2-0.4-0.3c-0.1-0.1-0.2-0.3-0.3-0.4
				c-0.1-0.2-0.1-0.3-0.1-0.5c0-0.2,0-0.4,0.1-0.5c0.1-0.2,0.1-0.3,0.3-0.4c0.1-0.1,0.2-0.2,0.4-0.3c0.2-0.1,0.3-0.1,0.5-0.1
				c0.1,0,0.3,0,0.4,0.1c0.1,0,0.2,0.1,0.3,0.2c0.1,0.1,0.2,0.2,0.3,0.3c0.1,0.1,0.1,0.3,0.1,0.4H22C22,33.8,22,33.7,21.9,33.7z"/>
			<path class="st0" d="M24.9,33v0.5h-1.4V34h1.3v0.5h-1.3v0.6H25v0.5h-2V33H24.9z"/>
			<path class="st0" d="M25.9,33.7c-0.1,0.3-0.1,0.6-0.1,0.9c0,0.3,0,0.6,0.1,0.9c0.1,0.3,0.2,0.6,0.3,0.8h-0.4
				c-0.2-0.3-0.3-0.5-0.4-0.8c-0.1-0.3-0.1-0.6-0.1-0.9c0-0.1,0-0.3,0-0.4c0-0.1,0.1-0.3,0.1-0.5c0-0.2,0.1-0.3,0.2-0.4
				c0.1-0.1,0.1-0.3,0.2-0.4h0.4C26.1,33.2,26,33.5,25.9,33.7z"/>
			<path class="st0" d="M27.1,35.6v-1.7h-0.6v-0.4c0.1,0,0.2,0,0.3,0c0.1,0,0.2,0,0.2-0.1c0.1,0,0.1-0.1,0.2-0.2
				c0-0.1,0.1-0.1,0.1-0.2h0.4v2.6H27.1z"/>
			<path class="st0" d="M28.3,33H29l0.5,0.8L30,33h0.6l-0.8,1.3l0.9,1.4H30l-0.6-0.9l-0.6,0.9h-0.6l0.9-1.4L28.3,33z"/>
			<path class="st0" d="M31,35.5c0.1-0.3,0.1-0.6,0.1-0.9c0-0.3,0-0.6-0.1-0.9c-0.1-0.3-0.2-0.6-0.3-0.8h0.4
				c0.2,0.3,0.3,0.5,0.4,0.8c0.1,0.3,0.1,0.6,0.1,0.9c0,0.1,0,0.3,0,0.4c0,0.2-0.1,0.3-0.1,0.5s-0.1,0.3-0.2,0.4
				c-0.1,0.1-0.1,0.3-0.2,0.4h-0.4C30.8,36,30.9,35.8,31,35.5z"/>
			<path class="st0" d="M4.7,38c0-0.1,0.1-0.2,0.2-0.3c0.1-0.1,0.2-0.2,0.3-0.2c0.1-0.1,0.3-0.1,0.4-0.1c0.1,0,0.2,0,0.3,0.1
				c0.1,0,0.2,0.1,0.3,0.2c0.1,0.1,0.1,0.2,0.2,0.3c0,0.1,0.1,0.2,0.1,0.3c0,0.1,0,0.2-0.1,0.3c0,0.1-0.1,0.2-0.2,0.2
				C6.1,38.9,6.1,38.9,6,39c-0.1,0.1-0.2,0.1-0.3,0.2c-0.1,0.1-0.2,0.1-0.3,0.2s-0.2,0.1-0.2,0.2h1.2V40H4.6c0-0.1,0-0.3,0.1-0.4
				c0-0.1,0.1-0.2,0.2-0.3c0.1-0.1,0.2-0.2,0.3-0.2s0.2-0.1,0.3-0.2c0.1,0,0.1-0.1,0.2-0.1c0.1,0,0.1-0.1,0.2-0.1
				c0.1-0.1,0.1-0.1,0.1-0.2c0-0.1,0.1-0.1,0.1-0.2c0-0.1,0-0.2-0.1-0.3c-0.1-0.1-0.2-0.1-0.3-0.1c-0.1,0-0.1,0-0.2,0.1
				c-0.1,0-0.1,0.1-0.1,0.1c0,0.1-0.1,0.1-0.1,0.2c0,0.1,0,0.1,0,0.2H4.6C4.6,38.3,4.6,38.2,4.7,38z"/>
			<path class="st0" d="M6.7,38.1c0.1-0.2,0.1-0.3,0.2-0.4c0.1-0.1,0.2-0.2,0.3-0.2c0.1,0,0.2-0.1,0.4-0.1c0.1,0,0.3,0,0.4,0.1
				c0.1,0,0.2,0.1,0.3,0.2c0.1,0.1,0.2,0.2,0.2,0.4c0.1,0.2,0.1,0.4,0.1,0.6c0,0.3,0,0.5-0.1,0.6c-0.1,0.2-0.1,0.3-0.2,0.4
				C8.1,39.9,8,40,7.9,40c-0.1,0-0.2,0.1-0.4,0.1c-0.1,0-0.2,0-0.4-0.1c-0.1,0-0.2-0.1-0.3-0.2c-0.1-0.1-0.2-0.2-0.2-0.4
				c-0.1-0.2-0.1-0.4-0.1-0.6C6.6,38.5,6.6,38.3,6.7,38.1z M7.1,39c0,0.1,0,0.2,0,0.3c0,0.1,0.1,0.2,0.1,0.3s0.1,0.1,0.2,0.1
				c0.1,0,0.2,0,0.2-0.1s0.1-0.2,0.1-0.3c0-0.1,0-0.2,0-0.3c0-0.1,0-0.2,0-0.3c0,0,0-0.1,0-0.2c0-0.1,0-0.1,0-0.2c0-0.1,0-0.1,0-0.2
				c0-0.1,0-0.1-0.1-0.2c0-0.1-0.1-0.1-0.1-0.1c0,0-0.1,0-0.2,0c-0.1,0-0.1,0-0.2,0c0,0-0.1,0.1-0.1,0.1c0,0.1-0.1,0.1-0.1,0.2
				c0,0.1,0,0.1,0,0.2c0,0.1,0,0.1,0,0.2c0,0.1,0,0.1,0,0.2C7.1,38.8,7.1,38.9,7.1,39z"/>
			<path class="st0" d="M8.6,37.4h0.7l0.5,0.8l0.5-0.8H11l-0.8,1.3l0.9,1.4h-0.7l-0.6-0.9L9.2,40H8.6l0.9-1.4L8.6,37.4z"/>
			<path class="st0" d="M11.1,37.4h0.7l0.5,0.8l0.5-0.8h0.6l-0.8,1.3l0.9,1.4h-0.7l-0.6-0.9L11.7,40H11l0.9-1.4L11.1,37.4z"/>
			<path class="st0" d="M15.8,38.8v0.5h-1.1v-0.5H15.8z"/>
			<path class="st0" d="M17.1,37.4h0.7l0.5,0.8l0.5-0.8h0.6l-0.8,1.3l0.9,1.4h-0.7l-0.6-0.9L17.7,40H17l0.9-1.4L17.1,37.4z"/>
			<path class="st0" d="M19.6,37.4h0.7l0.5,0.8l0.5-0.8h0.6l-0.8,1.3L22,40h-0.7l-0.6-0.9L20.1,40h-0.6l0.9-1.4L19.6,37.4z"/>
			<path class="st0" d="M22.8,40l-0.9-2.6h0.6l0.6,1.9h0l0.6-1.9h0.6L23.5,40H22.8z"/>
			<path class="st0" d="M25.1,37.4V40h-0.6v-2.6H25.1z"/>
		</g>
		<rect x="4.5" y="29.2" class="st0" width="53.6" height="1.3"/>
	</g>
	<g>
		<path class="st0" d="M154,7c0.1,0.1,0.2,0.2,0.3,0.2c0.1,0.1,0.2,0.1,0.4,0.1c0.1,0,0.2,0,0.3,0c0.1,0,0.2-0.1,0.3-0.1
			s0.1-0.1,0.2-0.2c0-0.1,0.1-0.2,0.1-0.3l-0.4,0c0,0.1-0.1,0.2-0.1,0.3c-0.1,0.1-0.2,0.1-0.3,0.1c-0.1,0-0.2,0-0.2-0.1
			c-0.1,0-0.1-0.1-0.1-0.2c0-0.1-0.1-0.1-0.1-0.2c0-0.1,0-0.2,0-0.2c0-0.1,0-0.2,0-0.2c0-0.1,0.1-0.1,0.1-0.2c0-0.1,0.1-0.1,0.2-0.1
			c0.1,0,0.1,0,0.2,0c0,0,0.1,0,0.1,0c0,0,0.1,0,0.1,0.1c0,0,0.1,0.1,0.1,0.1c0,0,0,0.1,0,0.1l0.4,0c0-0.1,0-0.2-0.1-0.3
			c0-0.1-0.1-0.2-0.2-0.2c-0.1-0.1-0.1-0.1-0.2-0.1c-0.1,0-0.2-0.1-0.3-0.1c-0.1,0-0.3,0-0.4,0.1c-0.1,0-0.2,0.1-0.3,0.2
			c-0.1,0.1-0.1,0.2-0.2,0.3c0,0.1-0.1,0.2-0.1,0.4c0,0.1,0,0.3,0,0.4C153.8,6.8,153.9,6.9,154,7z"/>
		<path class="st0" d="M156.1,7.4c0.1,0.1,0.2,0.1,0.4,0.1c0.1,0,0.3,0,0.4,0c0.1,0,0.2-0.1,0.3-0.1c0.1-0.1,0.2-0.2,0.2-0.3
			c0.1-0.1,0.1-0.2,0.1-0.4c0-0.1,0-0.3,0-0.4c0-0.1-0.1-0.2-0.1-0.3c-0.1-0.1-0.1-0.2-0.2-0.3c-0.1-0.1-0.2-0.1-0.4-0.1
			c-0.1,0-0.3,0-0.4,0c-0.1,0-0.2,0.1-0.3,0.2c-0.1,0.1-0.2,0.2-0.2,0.3c-0.1,0.1-0.1,0.2-0.1,0.4c0,0.1,0,0.3,0,0.4
			c0,0.1,0.1,0.2,0.1,0.3C155.9,7.2,156,7.3,156.1,7.4z M156.1,6.5c0-0.1,0-0.2,0.1-0.2c0-0.1,0.1-0.1,0.1-0.2
			c0.1-0.1,0.1-0.1,0.2-0.1c0.1,0,0.1,0,0.2,0c0.1,0,0.2,0,0.2,0.1c0.1,0,0.1,0.1,0.1,0.2c0,0.1,0,0.1,0,0.2c0,0.1,0,0.2,0,0.2
			c0,0.1,0,0.1-0.1,0.2c0,0.1-0.1,0.1-0.1,0.2c0,0.1-0.1,0.1-0.2,0.1c-0.1,0-0.1,0-0.2,0c-0.1,0-0.2,0-0.2-0.1
			c-0.1,0-0.1-0.1-0.1-0.2c0-0.1,0-0.1,0-0.2C156.1,6.6,156.1,6.5,156.1,6.5z"/>
		<path class="st0" d="M158.1,7.2l0.4,0.1c0.1,0,0.2,0,0.3,0c0.1,0,0.2,0,0.2-0.1c0.1,0,0.1-0.1,0.2-0.1c0-0.1,0.1-0.1,0.1-0.2
			c0-0.1,0-0.1,0-0.2c0-0.1,0-0.1,0-0.2c0-0.1-0.1-0.1-0.1-0.2c-0.1-0.1-0.2-0.1-0.3-0.1l-0.8-0.3l-0.6,1.8l0.4,0.1L158.1,7.2z
			 M158.4,6.4l0.3,0.1c0,0,0.1,0,0.1,0.1c0,0,0.1,0,0.1,0.1c0,0,0,0.1,0,0.1c0,0,0,0.1,0,0.1c0,0.1,0,0.1-0.1,0.1c0,0-0.1,0-0.1,0.1
			c0,0-0.1,0-0.1,0c0,0-0.1,0-0.1,0l-0.3-0.1L158.4,6.4z"/>
		<polygon class="st0" points="160,8.6 160.3,7.9 161.4,7.2 160.9,7 160.2,7.5 160.2,6.6 159.7,6.5 159.9,7.8 159.6,8.4 		"/>
		<path class="st0" d="M161,9.1l0.4-0.6l0.3,0.2c0.1,0.1,0.1,0.1,0.2,0.2c0,0.1,0,0.1,0,0.2c0,0.1-0.1,0.1-0.1,0.2
			c0,0.1-0.1,0.1-0.1,0.2l0.4,0.2c0,0,0-0.1,0-0.1c0,0,0-0.1,0-0.1c0,0,0-0.1,0.1-0.1c0,0,0-0.1,0-0.1c0,0,0-0.1,0.1-0.1
			c0,0,0-0.1,0-0.1c0,0,0-0.1,0-0.1c0,0,0-0.1-0.1-0.1l0,0c0.1,0,0.2,0,0.3,0c0.1,0,0.1-0.1,0.2-0.2c0-0.1,0.1-0.1,0.1-0.2
			c0-0.1,0-0.1,0-0.2c0-0.1,0-0.1-0.1-0.2c0-0.1-0.1-0.1-0.2-0.1l-0.9-0.5l-0.9,1.6L161,9.1z M161.8,7.8l0.4,0.2
			c0.1,0,0.1,0.1,0.1,0.2c0,0.1,0,0.1,0,0.2c0,0.1-0.1,0.1-0.2,0.1c-0.1,0-0.1,0-0.2-0.1l-0.4-0.2L161.8,7.8z"/>
		<rect x="162" y="9.1" transform="matrix(0.5808 -0.814 0.814 0.5808 60.7646 136.5183)" class="st0" width="1.9" height="0.4"/>
		<path class="st0" d="M163.2,9.9c0,0.1-0.1,0.2-0.1,0.3c0,0.1,0,0.2,0.1,0.3c0.1,0.1,0.1,0.2,0.2,0.3c0.1,0.1,0.1,0.1,0.2,0.1
			c0.1,0,0.2,0,0.3,0l-0.1,0.2l0.2,0.2l0.6-0.8l-0.6-0.5l-0.2,0.2l0.3,0.3c-0.1,0.1-0.2,0.1-0.3,0.1c-0.1,0-0.2,0-0.3-0.1
			c-0.1-0.1-0.1-0.1-0.1-0.2c0-0.1,0-0.1,0-0.2c0-0.1,0-0.1,0.1-0.2c0-0.1,0.1-0.1,0.1-0.2c0.1-0.1,0.1-0.1,0.2-0.2
			c0.1,0,0.1-0.1,0.2-0.1c0.1,0,0.1,0,0.2,0s0.1,0.1,0.2,0.1c0.1,0.1,0.1,0.1,0.1,0.2c0,0.1,0,0.2,0,0.3l0.3,0.3
			c0.1-0.1,0.1-0.2,0.1-0.3c0-0.1,0-0.2,0-0.3c0-0.1-0.1-0.2-0.1-0.3c0-0.1-0.1-0.2-0.2-0.2c-0.1-0.1-0.2-0.2-0.3-0.2
			c-0.1,0-0.2,0-0.4,0c-0.1,0-0.2,0.1-0.3,0.1c-0.1,0.1-0.2,0.1-0.3,0.3C163.3,9.7,163.2,9.8,163.2,9.9z"/>
		<polygon class="st0" points="164.5,11.9 165.1,11.3 165.6,11.9 165.1,12.4 165.3,12.7 166.7,11.5 166.4,11.2 165.9,11.6 
			165.4,11.1 165.9,10.6 165.6,10.3 164.3,11.6 		"/>
		<polygon class="st0" points="167,12.4 165.8,13.3 166,13.6 167.2,12.7 167.5,13.2 167.8,13 166.9,11.8 166.7,12 		"/>
		<path class="st0" d="M167.2,13.6c-0.1,0.1-0.2,0.2-0.3,0.3c-0.1,0.1-0.1,0.2-0.2,0.3c0,0.1,0,0.2,0,0.4c0,0.1,0.1,0.2,0.1,0.4
			c0.1,0.1,0.1,0.2,0.2,0.3c0.1,0.1,0.2,0.1,0.3,0.2c0.1,0,0.2,0.1,0.4,0c0.1,0,0.3-0.1,0.4-0.1c0.1-0.1,0.2-0.2,0.3-0.3
			c0.1-0.1,0.1-0.2,0.2-0.3s0-0.2,0-0.4s-0.1-0.2-0.1-0.4c-0.1-0.1-0.1-0.2-0.2-0.3c-0.1-0.1-0.2-0.1-0.3-0.2c-0.1,0-0.2-0.1-0.4,0
			C167.4,13.5,167.3,13.6,167.2,13.6z M167.9,13.8c0.1,0,0.2,0.1,0.3,0.1c0.1,0.1,0.1,0.1,0.2,0.2c0,0.1,0.1,0.2,0.1,0.3
			c0,0.1,0,0.2,0,0.3c0,0.1-0.1,0.2-0.1,0.3c-0.1,0.1-0.1,0.1-0.2,0.2c-0.1,0.1-0.2,0.1-0.3,0.1c-0.1,0-0.2,0-0.3,0
			c-0.1,0-0.2-0.1-0.3-0.1c-0.1-0.1-0.1-0.1-0.2-0.2c0-0.1-0.1-0.2-0.1-0.3c0-0.1,0-0.2,0-0.3c0-0.1,0.1-0.2,0.1-0.3
			c0.1-0.1,0.1-0.1,0.2-0.2c0.1-0.1,0.2-0.1,0.3-0.1C167.7,13.7,167.8,13.8,167.9,13.8z"/>
		<path class="st0" d="M167.1,14.4c0,0.1,0,0.1,0,0.2c0,0.1,0,0.1,0.1,0.2c0,0,0.1,0.1,0.1,0.1c0,0,0.1,0.1,0.1,0.1
			c0.1,0,0.1,0,0.2,0c0.1,0,0.1,0,0.2,0l-0.1-0.2c-0.1,0-0.1,0-0.2,0c-0.1,0-0.1-0.1-0.1-0.1c0,0,0-0.1,0-0.1c0,0,0-0.1,0-0.1
			c0,0,0-0.1,0.1-0.1c0,0,0.1-0.1,0.1-0.1c0.1-0.1,0.2-0.1,0.3-0.1c0.1,0,0.2,0.1,0.2,0.1c0,0.1,0,0.1,0,0.2c0,0.1,0,0.1-0.1,0.2
			l0.1,0.2c0.1,0,0.1-0.1,0.1-0.1c0,0,0-0.1,0.1-0.2c0-0.1,0-0.1,0-0.2s0-0.1-0.1-0.2c0-0.1-0.1-0.1-0.2-0.2c-0.1,0-0.1-0.1-0.2-0.1
			c-0.1,0-0.1,0-0.2,0c-0.1,0-0.1,0-0.2,0.1c-0.1,0-0.1,0.1-0.2,0.1C167.2,14.2,167.1,14.3,167.1,14.4z"/>
		<path class="st0" d="M167.5,16.2l0.4,0l0.3,0.6l-0.3,0.3l0.2,0.4l1.5-1.3l-0.2-0.4l-2,0.1L167.5,16.2z M168.9,16.1L168.9,16.1
			l-0.5,0.5l-0.2-0.4L168.9,16.1z"/>
		<polygon class="st0" points="168.4,18.8 168.7,18.7 168.5,17.9 169.9,17.4 169.8,17.1 168,17.6 		"/>
		<polygon class="st0" points="168.6,20.3 169,20.2 168.8,19.4 170.3,19.1 170.2,18.7 168.4,19 		"/>
		<path class="st0" d="M168.8,21.6l0.7,0l0,0.4c0,0.1,0,0.2-0.1,0.2c0,0-0.1,0.1-0.2,0.1c-0.1,0-0.2,0-0.2,0c-0.1,0-0.2,0-0.2,0
			l0,0.4c0,0,0.1,0,0.1,0c0,0,0.1,0,0.1,0s0.1,0,0.1,0c0,0,0.1,0,0.1,0c0,0,0.1,0,0.1,0c0,0,0.1,0,0.1,0s0.1,0,0.1-0.1
			c0,0,0-0.1,0.1-0.1h0c0,0.1,0.1,0.2,0.2,0.2c0.1,0,0.2,0.1,0.3,0.1c0.1,0,0.1,0,0.2,0c0.1,0,0.1-0.1,0.2-0.1c0,0,0.1-0.1,0.1-0.2
			c0-0.1,0-0.1,0-0.2l0-1l-1.9,0L168.8,21.6z M170.3,21.5l0,0.4c0,0.1,0,0.2-0.1,0.2c0,0-0.1,0.1-0.2,0.1c-0.1,0-0.2,0-0.2-0.1
			c0,0-0.1-0.1-0.1-0.2l0-0.4L170.3,21.5z"/>
		
			<rect x="169.5" y="22.3" transform="matrix(5.511967e-02 -0.9985 0.9985 5.511967e-02 137.0938 191.3861)" class="st0" width="0.4" height="1.9"/>
		<path class="st0" d="M170.3,24.1c-0.1-0.1-0.2-0.2-0.3-0.2c-0.1-0.1-0.2-0.1-0.4-0.1c-0.1,0-0.3,0-0.4,0c-0.1,0-0.2,0.1-0.3,0.1
			c-0.1,0.1-0.2,0.1-0.2,0.3s-0.1,0.2-0.1,0.4c0,0.1,0,0.2,0,0.3c0,0.1,0.1,0.2,0.2,0.3l-0.2,0l0,0.3l1,0.1l0.1-0.8l-0.3,0l-0.1,0.4
			c-0.1,0-0.2-0.1-0.3-0.2c-0.1-0.1-0.1-0.2-0.1-0.3c0-0.1,0-0.2,0.1-0.2s0.1-0.1,0.2-0.1c0.1,0,0.1,0,0.2-0.1c0.1,0,0.2,0,0.2,0
			c0.1,0,0.2,0,0.2,0.1c0.1,0,0.1,0.1,0.2,0.1c0.1,0,0.1,0.1,0.1,0.2c0,0.1,0,0.1,0,0.2c0,0.1-0.1,0.2-0.1,0.2
			c-0.1,0.1-0.1,0.1-0.3,0.1l-0.1,0.4c0.1,0,0.2,0,0.3,0s0.2-0.1,0.2-0.1c0.1-0.1,0.1-0.1,0.2-0.2c0-0.1,0.1-0.2,0.1-0.3
			c0-0.1,0-0.3,0-0.4C170.4,24.3,170.4,24.2,170.3,24.1z"/>
		<polygon class="st0" points="168.3,26 169.1,26.2 168.9,26.9 168.1,26.7 168,27.1 169.8,27.6 169.9,27.2 169.2,27 169.4,26.3 
			170.1,26.5 170.2,26.1 168.4,25.6 		"/>
		<polygon class="st0" points="169.2,28.4 167.8,27.8 167.6,28.2 169,28.7 168.8,29.3 169.1,29.4 169.7,28 169.4,27.9 		"/>
		<path class="st0" d="M168.5,29.4c-0.1,0-0.1-0.1-0.2-0.1c-0.1,0-0.1,0-0.2,0c-0.1,0-0.1,0.1-0.2,0.1c-0.1,0-0.1,0.1-0.2,0.1
			c0,0.1-0.1,0.1-0.1,0.2c0,0.1-0.1,0.1-0.1,0.1c0,0-0.1,0.1-0.1,0.1c0,0-0.1,0-0.1,0c0,0-0.1-0.1-0.1-0.1c0,0,0-0.1,0-0.1
			c0,0,0-0.1,0-0.1c0,0,0-0.1,0-0.1c0,0,0.1-0.1,0.1-0.1s0.1-0.1,0.1-0.1c0,0,0.1,0,0.1,0c0,0,0.1,0,0.2,0l0.2-0.3
			c-0.1-0.1-0.2-0.1-0.3-0.1c-0.1,0-0.2,0-0.3,0.1c-0.1,0-0.2,0.1-0.2,0.2c-0.1,0.1-0.1,0.2-0.2,0.2c-0.1,0.1-0.1,0.2-0.1,0.3
			c0,0.1,0,0.2,0,0.3c0,0.1,0,0.2,0.1,0.2c0,0.1,0.1,0.1,0.2,0.2c0.1,0,0.2,0.1,0.3,0.1c0.1,0,0.2,0,0.2-0.1c0.1,0,0.1-0.1,0.2-0.1
			c0,0,0.1-0.1,0.1-0.1c0.1-0.1,0.1-0.2,0.2-0.2c0.1-0.1,0.1-0.1,0.1-0.1s0.1,0,0.1,0c0,0,0.1,0,0.1,0c0,0,0.1,0,0.1,0.1
			c0,0,0,0.1,0,0.1c0,0,0,0.1,0,0.1c0,0,0,0.1,0,0.1c0,0,0,0.1-0.1,0.1c0,0-0.1,0.1-0.1,0.1c0,0-0.1,0-0.1,0c0,0-0.1,0-0.1,0
			l-0.2,0.3c0.1,0,0.2,0.1,0.3,0.1c0.1,0,0.2,0,0.2-0.1c0.1,0,0.1-0.1,0.2-0.2c0.1-0.1,0.1-0.1,0.2-0.2c0-0.1,0.1-0.2,0.1-0.2
			c0-0.1,0-0.2,0-0.2c0-0.1,0-0.2-0.1-0.2C168.7,29.5,168.6,29.4,168.5,29.4z"/>
		<path class="st0" d="M165.9,31.2l0.6,0.4l-0.2,0.3c-0.1,0.1-0.1,0.1-0.2,0.1c-0.1,0-0.1,0-0.2-0.1c-0.1,0-0.1-0.1-0.2-0.1
			c-0.1,0-0.1-0.1-0.2-0.1l-0.2,0.3c0,0,0.1,0,0.1,0c0,0,0.1,0,0.1,0.1c0,0,0.1,0,0.1,0.1c0,0,0.1,0,0.1,0.1c0,0,0.1,0,0.1,0.1
			c0,0,0.1,0,0.1,0c0,0,0.1,0,0.1,0s0.1,0,0.1-0.1l0,0c0,0.1,0,0.2,0,0.3c0,0.1,0.1,0.2,0.2,0.2c0.1,0,0.1,0.1,0.2,0.1
			c0.1,0,0.1,0,0.2,0c0.1,0,0.1,0,0.2-0.1c0.1,0,0.1-0.1,0.2-0.2l0.6-0.8l-1.5-1.1L165.9,31.2z M167.2,32.1l-0.3,0.4
			c-0.1,0.1-0.1,0.1-0.2,0.1c-0.1,0-0.1,0-0.2-0.1c-0.1-0.1-0.1-0.1-0.1-0.2c0-0.1,0-0.1,0.1-0.2l0.3-0.4L167.2,32.1z"/>
		<polygon class="st0" points="164.1,33.3 164.4,33.5 165,32.8 165.4,33.1 164.8,33.8 165,34 165.6,33.4 165.9,33.6 165.2,34.3 
			165.5,34.6 166.4,33.6 165.1,32.3 		"/>
		<path class="st0" d="M164.7,34.3c-0.1,0-0.1,0-0.2,0c-0.1,0-0.1,0-0.2,0c-0.1,0-0.1,0.1-0.2,0.1c-0.1,0-0.1,0.1-0.2,0.1
			c-0.1,0-0.1,0.1-0.2,0.1c-0.1,0-0.1,0-0.1,0c0,0-0.1,0-0.1-0.1c0,0,0-0.1,0-0.1c0,0,0-0.1,0-0.1c0,0,0-0.1,0.1-0.1
			s0.1-0.1,0.1-0.1c0,0,0.1-0.1,0.1-0.1c0,0,0.1,0,0.1,0c0,0,0.1,0,0.1,0c0,0,0.1,0.1,0.1,0.1l0.3-0.3c-0.1-0.1-0.2-0.1-0.2-0.2
			c-0.1,0-0.2,0-0.3,0s-0.2,0-0.3,0.1c-0.1,0-0.2,0.1-0.3,0.2c-0.1,0.1-0.2,0.2-0.2,0.2c-0.1,0.1-0.1,0.2-0.1,0.3c0,0.1,0,0.2,0,0.2
			c0,0.1,0.1,0.1,0.1,0.2c0.1,0.1,0.1,0.1,0.2,0.2s0.2,0,0.2,0c0.1,0,0.1,0,0.2-0.1c0.1,0,0.1,0,0.1-0.1c0.1-0.1,0.2-0.1,0.3-0.1
			c0.1,0,0.1-0.1,0.2-0.1c0,0,0.1,0,0.1,0c0,0,0,0,0.1,0.1c0,0,0,0.1,0,0.1c0,0,0,0.1,0,0.1c0,0,0,0.1,0,0.1c0,0,0,0.1-0.1,0.1
			c0,0-0.1,0.1-0.1,0.1c0,0-0.1,0-0.1,0c0,0-0.1,0-0.1,0c0,0-0.1,0-0.1-0.1l-0.3,0.3c0.1,0.1,0.1,0.1,0.2,0.2c0.1,0,0.2,0,0.2,0
			c0.1,0,0.2,0,0.2-0.1c0.1,0,0.2-0.1,0.2-0.2c0.1-0.1,0.1-0.1,0.2-0.2c0-0.1,0.1-0.1,0.1-0.2c0-0.1,0-0.2,0-0.2
			c0-0.1-0.1-0.2-0.1-0.2C164.8,34.4,164.7,34.3,164.7,34.3z"/>
		<polygon class="st0" points="161.5,35.3 161.7,35.6 162.5,35 162.8,35.4 162,35.9 162.2,36.2 163,35.7 163.2,36 162.4,36.5 
			162.6,36.8 163.7,36.1 162.7,34.5 		"/>
		<path class="st0" d="M161,35.6l0.3,0.6l-0.4,0.2c-0.1,0-0.2,0.1-0.2,0c-0.1,0-0.1-0.1-0.2-0.1c0-0.1-0.1-0.1-0.1-0.2
			c0-0.1-0.1-0.1-0.1-0.2l-0.4,0.2c0,0,0.1,0,0.1,0.1c0,0,0,0.1,0.1,0.1c0,0,0,0.1,0.1,0.1c0,0,0,0.1,0.1,0.1c0,0,0.1,0.1,0.1,0.1
			c0,0,0.1,0.1,0.1,0.1c0,0,0.1,0,0.1,0.1c0,0,0.1,0,0.1,0l0,0c-0.1,0.1-0.1,0.2-0.1,0.3c0,0.1,0,0.2,0.1,0.3c0,0.1,0.1,0.1,0.1,0.2
			c0.1,0,0.1,0.1,0.2,0.1s0.1,0,0.2,0c0.1,0,0.1,0,0.2-0.1l0.9-0.5l-0.9-1.6L161,35.6z M161.7,37l-0.4,0.2c-0.1,0-0.2,0.1-0.2,0
			c-0.1,0-0.1-0.1-0.2-0.1c0-0.1-0.1-0.2,0-0.2c0-0.1,0.1-0.1,0.2-0.2l0.4-0.2L161.7,37z"/>
		<polygon class="st0" points="158.9,36.5 159,38.5 159.4,38.3 159.4,37 159.4,37 160.2,38 160.6,37.9 159.4,36.4 		"/>
		<polygon class="st0" points="156.9,37.2 157,37.5 158,37.2 158.1,37.7 157.2,37.9 157.3,38.2 158.2,38 158.3,38.4 157.3,38.6 
			157.4,38.9 158.8,38.6 158.3,36.8 		"/>
		<path class="st0" d="M155.9,37.3c-0.1,0-0.3,0.1-0.4,0.1c-0.1,0.1-0.2,0.1-0.2,0.2c-0.1,0.1-0.1,0.2-0.1,0.3c0,0.1,0,0.2,0,0.4
			c0,0.2,0.1,0.3,0.1,0.4c0.1,0.1,0.1,0.2,0.2,0.3c0.1,0.1,0.2,0.1,0.3,0.1c0.1,0,0.2,0,0.3,0L157,39l-0.3-1.8L155.9,37.3z
			 M156.2,38.8c-0.1,0-0.2,0-0.3,0c-0.1,0-0.1,0-0.2-0.1s-0.1-0.1-0.1-0.2c0-0.1-0.1-0.2-0.1-0.2c0-0.1,0-0.2,0-0.3
			c0-0.1,0-0.1,0.1-0.2c0,0,0.1-0.1,0.1-0.1c0.1,0,0.1,0,0.2-0.1l0.4-0.1l0.2,1.2L156.2,38.8z"/>
		<path class="st0" d="M153.3,37.7c-0.1-0.1-0.2-0.2-0.3-0.2c-0.1-0.1-0.2-0.1-0.4-0.1c-0.1,0-0.2,0-0.3,0c-0.1,0-0.2,0.1-0.3,0.1
			c-0.1,0.1-0.1,0.1-0.2,0.2c0,0.1-0.1,0.2-0.1,0.3l0.4,0c0-0.1,0.1-0.2,0.1-0.3c0.1-0.1,0.2-0.1,0.3-0.1c0.1,0,0.2,0,0.2,0.1
			c0.1,0,0.1,0.1,0.1,0.2c0,0.1,0.1,0.1,0.1,0.2c0,0.1,0,0.2,0,0.2c0,0.1,0,0.2,0,0.2c0,0.1-0.1,0.1-0.1,0.2c0,0.1-0.1,0.1-0.2,0.1
			c-0.1,0-0.1,0-0.2,0c-0.1,0-0.1,0-0.1,0c0,0-0.1,0-0.1-0.1c0,0-0.1-0.1-0.1-0.1c0,0,0-0.1,0-0.1l-0.4,0c0,0.1,0,0.2,0.1,0.3
			c0,0.1,0.1,0.2,0.2,0.2c0.1,0.1,0.1,0.1,0.2,0.1c0.1,0,0.2,0.1,0.3,0.1c0.1,0,0.3,0,0.4-0.1c0.1,0,0.2-0.1,0.3-0.2
			c0.1-0.1,0.1-0.2,0.2-0.3c0-0.1,0.1-0.2,0.1-0.4c0-0.1,0-0.3,0-0.4C153.4,37.9,153.3,37.8,153.3,37.7z"/>
		<path class="st0" d="M151.1,37.3c-0.1-0.1-0.2-0.1-0.4-0.1c-0.1,0-0.3,0-0.4,0c-0.1,0-0.2,0.1-0.3,0.1c-0.1,0.1-0.2,0.2-0.2,0.3
			c-0.1,0.1-0.1,0.2-0.1,0.4c0,0.1,0,0.3,0,0.4c0,0.1,0.1,0.2,0.1,0.3c0.1,0.1,0.1,0.2,0.2,0.3c0.1,0.1,0.2,0.1,0.4,0.1
			c0.1,0,0.3,0,0.4,0c0.1,0,0.2-0.1,0.3-0.2c0.1-0.1,0.2-0.2,0.2-0.3c0.1-0.1,0.1-0.2,0.1-0.4c0-0.1,0-0.3,0-0.4
			c0-0.1-0.1-0.2-0.1-0.3C151.3,37.5,151.2,37.4,151.1,37.3z M151.1,38.2c0,0.1,0,0.2-0.1,0.2c0,0.1-0.1,0.1-0.1,0.2
			c-0.1,0.1-0.1,0.1-0.2,0.1c-0.1,0-0.1,0-0.2,0c-0.1,0-0.2,0-0.2-0.1c-0.1,0-0.1-0.1-0.1-0.2c0-0.1,0-0.1,0-0.2c0-0.1,0-0.2,0-0.2
			c0-0.1,0-0.1,0.1-0.2c0-0.1,0.1-0.1,0.1-0.2c0-0.1,0.1-0.1,0.2-0.1c0.1,0,0.1,0,0.2,0c0.1,0,0.2,0,0.2,0.1c0.1,0,0.1,0.1,0.1,0.2
			c0,0.1,0,0.1,0,0.2C151.1,38.1,151.1,38.2,151.1,38.2z"/>
		<path class="st0" d="M149.1,37.5l-0.4-0.1c-0.1,0-0.2,0-0.3,0c-0.1,0-0.2,0-0.2,0.1c-0.1,0-0.1,0.1-0.2,0.1c0,0.1-0.1,0.1-0.1,0.2
			c0,0.1,0,0.1,0,0.2c0,0.1,0,0.1,0,0.2c0,0.1,0.1,0.1,0.1,0.2c0.1,0.1,0.2,0.1,0.3,0.1l0.8,0.3l0.6-1.8l-0.4-0.1L149.1,37.5z
			 M148.8,38.3l-0.3-0.1c0,0-0.1,0-0.1-0.1c0,0-0.1,0-0.1-0.1s0-0.1,0-0.1c0,0,0-0.1,0-0.1c0-0.1,0-0.1,0.1-0.1c0,0,0.1,0,0.1-0.1
			s0.1,0,0.1,0c0,0,0.1,0,0.1,0l0.3,0.1L148.8,38.3z"/>
		<polygon class="st0" points="147.3,36.1 147,36.8 145.9,37.5 146.3,37.7 147,37.2 147.1,38.1 147.5,38.2 147.3,36.9 147.6,36.3 		
			"/>
		<path class="st0" d="M146.2,35.6l-0.4,0.6l-0.3-0.2c-0.1-0.1-0.1-0.1-0.2-0.2c0-0.1,0-0.1,0-0.2c0-0.1,0.1-0.1,0.1-0.2
			c0-0.1,0.1-0.1,0.1-0.2l-0.3-0.2c0,0,0,0.1,0,0.1c0,0,0,0.1,0,0.1c0,0,0,0.1-0.1,0.1c0,0,0,0.1,0,0.1c0,0,0,0.1-0.1,0.1
			c0,0,0,0.1,0,0.1c0,0,0,0.1,0,0.1c0,0,0,0.1,0.1,0.1l0,0c-0.1,0-0.2,0-0.3,0c-0.1,0-0.1,0.1-0.2,0.2c0,0.1-0.1,0.1-0.1,0.2
			c0,0.1,0,0.1,0,0.2c0,0.1,0,0.1,0.1,0.2c0,0.1,0.1,0.1,0.2,0.1l0.9,0.5l0.9-1.6L146.2,35.6z M145.4,36.9l-0.4-0.2
			c-0.1,0-0.1-0.1-0.1-0.2c0-0.1,0-0.1,0-0.2c0-0.1,0.1-0.1,0.2-0.1c0.1,0,0.1,0,0.2,0.1l0.4,0.2L145.4,36.9z"/>
		
			<rect x="143.3" y="35.2" transform="matrix(0.582 -0.8132 0.8132 0.582 31.4916 132.1344)" class="st0" width="1.9" height="0.4"/>
		<path class="st0" d="M144,34.8c0-0.1,0.1-0.2,0.1-0.3c0-0.1,0-0.2-0.1-0.3c-0.1-0.1-0.1-0.2-0.2-0.3c-0.1-0.1-0.1-0.1-0.2-0.1
			c-0.1,0-0.2,0-0.3,0l0.1-0.2l-0.2-0.2l-0.7,0.8l0.6,0.5l0.2-0.2l-0.3-0.3c0.1-0.1,0.2-0.1,0.3-0.1c0.1,0,0.2,0,0.3,0.1
			c0.1,0.1,0.1,0.1,0.1,0.2c0,0.1,0,0.1,0,0.2c0,0.1,0,0.1-0.1,0.2c0,0.1-0.1,0.1-0.1,0.2c-0.1,0.1-0.1,0.1-0.2,0.2
			c-0.1,0-0.1,0.1-0.2,0.1c-0.1,0-0.1,0-0.2,0c-0.1,0-0.1-0.1-0.2-0.1c-0.1-0.1-0.1-0.1-0.1-0.2c0-0.1,0-0.2,0-0.3l-0.3-0.3
			c-0.1,0.1-0.1,0.2-0.1,0.3s0,0.2,0,0.3c0,0.1,0.1,0.2,0.1,0.3c0,0.1,0.1,0.1,0.2,0.2c0.1,0.1,0.2,0.2,0.3,0.2c0.1,0,0.2,0,0.4,0
			c0.1,0,0.2-0.1,0.3-0.1c0.1-0.1,0.2-0.1,0.3-0.3C143.9,35,144,34.9,144,34.8z"/>
		<polygon class="st0" points="142.7,32.8 142.1,33.4 141.6,32.8 142.2,32.3 141.9,32 140.5,33.2 140.8,33.5 141.3,33 141.8,33.6 
			141.3,34.1 141.6,34.4 142.9,33.1 		"/>
		<polygon class="st0" points="140.2,32.3 141.5,31.4 141.2,31.1 140,32 139.7,31.5 139.4,31.7 140.3,32.9 140.6,32.7 		"/>
		<path class="st0" d="M140.1,30.3c0-0.1,0-0.1,0-0.2c0-0.1,0-0.1-0.1-0.2c0,0-0.1-0.1-0.1-0.1c0,0-0.1-0.1-0.1-0.1
			c-0.1,0-0.1,0-0.2,0s-0.1,0-0.2,0l0.1,0.2c0.1,0,0.1,0,0.2,0c0.1,0,0.1,0.1,0.1,0.1c0,0,0,0.1,0,0.1c0,0,0,0.1,0,0.1
			c0,0,0,0.1-0.1,0.1c0,0-0.1,0.1-0.1,0.1c-0.1,0.1-0.2,0.1-0.3,0.1c-0.1,0-0.2-0.1-0.2-0.1c0-0.1,0-0.1,0-0.2c0-0.1,0-0.1,0.1-0.2
			l-0.1-0.2c-0.1,0-0.1,0.1-0.1,0.1c0,0,0,0.1-0.1,0.2c0,0.1,0,0.1,0,0.2s0,0.1,0.1,0.2c0,0.1,0.1,0.1,0.2,0.2
			c0.1,0,0.1,0.1,0.2,0.1c0.1,0,0.1,0,0.2,0c0.1,0,0.1,0,0.2-0.1c0.1,0,0.1-0.1,0.2-0.1C140.1,30.5,140.1,30.4,140.1,30.3z"/>
		<path class="st0" d="M140.1,31.1c0.1-0.1,0.2-0.2,0.3-0.3c0.1-0.1,0.1-0.2,0.2-0.3c0-0.1,0-0.2,0-0.4c0-0.1-0.1-0.2-0.1-0.4
			c-0.1-0.1-0.1-0.2-0.2-0.3c-0.1-0.1-0.2-0.1-0.3-0.2c-0.1,0-0.2-0.1-0.4,0c-0.1,0-0.3,0.1-0.4,0.1c-0.1,0.1-0.2,0.2-0.3,0.3
			s-0.1,0.2-0.2,0.3c0,0.1,0,0.2,0,0.4c0,0.1,0.1,0.2,0.1,0.4c0.1,0.1,0.1,0.2,0.2,0.3c0.1,0.1,0.2,0.1,0.3,0.2c0.1,0,0.2,0.1,0.4,0
			C139.8,31.2,139.9,31.2,140.1,31.1z M139.4,30.9c-0.1,0-0.2-0.1-0.3-0.1c-0.1-0.1-0.1-0.1-0.2-0.2c0-0.1-0.1-0.2-0.1-0.3
			c0-0.1,0-0.2,0-0.3c0-0.1,0.1-0.2,0.1-0.3c0.1-0.1,0.1-0.1,0.2-0.2c0.1-0.1,0.2-0.1,0.3-0.1c0.1,0,0.2,0,0.3,0
			c0.1,0,0.2,0.1,0.3,0.1c0.1,0.1,0.1,0.1,0.2,0.2c0,0.1,0.1,0.2,0.1,0.3c0,0.1,0,0.2,0,0.3c0,0.1-0.1,0.2-0.1,0.3
			c-0.1,0.1-0.1,0.1-0.2,0.2c-0.1,0.1-0.2,0.1-0.3,0.1C139.5,31,139.5,31,139.4,30.9z"/>
		<path class="st0" d="M139.8,28.5l-0.4,0l-0.3-0.6l0.3-0.3l-0.2-0.4l-1.5,1.3l0.2,0.4l2,0L139.8,28.5z M138.3,28.6L138.3,28.6
			l0.5-0.5l0.2,0.4L138.3,28.6z"/>
		<polygon class="st0" points="138.9,25.9 138.5,25.9 138.8,26.8 137.3,27.2 137.4,27.6 139.2,27.1 		"/>
		<polygon class="st0" points="138.6,24.4 138.2,24.5 138.4,25.3 136.9,25.6 137,26 138.8,25.7 		"/>
		<path class="st0" d="M138.5,23.1l-0.7,0l0-0.4c0-0.1,0-0.2,0.1-0.2c0,0,0.1-0.1,0.2-0.1c0.1,0,0.2,0,0.2,0c0.1,0,0.2,0,0.2,0
			l0-0.4c0,0-0.1,0-0.1,0c0,0-0.1,0-0.1,0c0,0-0.1,0-0.1,0c0,0-0.1,0-0.1,0c0,0-0.1,0-0.1,0c0,0-0.1,0-0.1,0c0,0-0.1,0-0.1,0.1
			c0,0,0,0.1-0.1,0.1h0c0-0.1-0.1-0.2-0.2-0.2c-0.1,0-0.2-0.1-0.3-0.1c-0.1,0-0.1,0-0.2,0c-0.1,0-0.1,0.1-0.2,0.1
			c0,0-0.1,0.1-0.1,0.2c0,0.1,0,0.1,0,0.2l0,1l1.9,0L138.5,23.1z M136.9,23.1l0-0.4c0-0.1,0-0.2,0.1-0.2c0,0,0.1-0.1,0.2-0.1
			c0.1,0,0.2,0,0.2,0.1c0,0,0.1,0.1,0.1,0.2l0,0.4L136.9,23.1z"/>
		
			<rect x="137.4" y="20.5" transform="matrix(5.717085e-02 -0.9984 0.9984 5.717085e-02 108.3105 157.54)" class="st0" width="0.4" height="1.9"/>
		<path class="st0" d="M136.9,20.6c0.1,0.1,0.2,0.2,0.3,0.2c0.1,0.1,0.2,0.1,0.4,0.1c0.1,0,0.3,0,0.4,0c0.1,0,0.2-0.1,0.3-0.1
			c0.1-0.1,0.2-0.1,0.2-0.3c0.1-0.1,0.1-0.2,0.1-0.4c0-0.1,0-0.2,0-0.3c0-0.1-0.1-0.2-0.2-0.3l0.2,0l0-0.3l-1-0.1l-0.1,0.8l0.3,0
			l0.1-0.4c0.1,0,0.2,0.1,0.3,0.2c0.1,0.1,0.1,0.2,0.1,0.3c0,0.1,0,0.2-0.1,0.2c0,0.1-0.1,0.1-0.2,0.1c-0.1,0-0.1,0-0.2,0.1
			c-0.1,0-0.2,0-0.2,0c-0.1,0-0.2,0-0.2-0.1c-0.1,0-0.1-0.1-0.2-0.1c-0.1,0-0.1-0.1-0.1-0.2c0-0.1,0-0.1,0-0.2
			c0-0.1,0.1-0.2,0.1-0.2c0.1-0.1,0.1-0.1,0.3-0.1l0.1-0.4c-0.1,0-0.2,0-0.3,0s-0.2,0.1-0.2,0.1c-0.1,0.1-0.1,0.1-0.2,0.2
			c0,0.1-0.1,0.2-0.1,0.3c0,0.1,0,0.3,0,0.4C136.8,20.4,136.9,20.5,136.9,20.6z"/>
		<polygon class="st0" points="138.9,18.7 138.1,18.5 138.3,17.7 139.1,18 139.2,17.6 137.4,17.1 137.3,17.5 138,17.7 137.8,18.4 
			137.1,18.2 137,18.6 138.8,19.1 		"/>
		<polygon class="st0" points="138.1,16.3 139.5,16.9 139.6,16.5 138.2,16 138.4,15.4 138.1,15.3 137.5,16.7 137.9,16.9 		"/>
		<path class="st0" d="M138.7,15.3c0.1,0,0.1,0.1,0.2,0.1c0.1,0,0.1,0,0.2,0c0.1,0,0.1-0.1,0.2-0.1c0.1,0,0.1-0.1,0.2-0.1
			c0-0.1,0.1-0.1,0.1-0.2c0-0.1,0.1-0.1,0.1-0.1c0,0,0.1-0.1,0.1-0.1c0,0,0.1,0,0.1,0c0,0,0.1,0.1,0.1,0.1c0,0,0,0.1,0,0.1
			c0,0,0,0.1,0,0.1c0,0,0,0.1,0,0.1c0,0-0.1,0.1-0.1,0.1s-0.1,0.1-0.1,0.1c0,0-0.1,0-0.1,0c0,0-0.1,0-0.2,0l-0.2,0.3
			c0.1,0.1,0.2,0.1,0.3,0.1c0.1,0,0.2,0,0.3-0.1c0.1,0,0.2-0.1,0.2-0.2c0.1-0.1,0.1-0.2,0.2-0.2c0.1-0.1,0.1-0.2,0.1-0.3
			c0-0.1,0-0.2,0-0.3c0-0.1,0-0.2-0.1-0.2s-0.1-0.1-0.2-0.2c-0.1,0-0.2-0.1-0.3-0.1c-0.1,0-0.2,0-0.2,0.1c-0.1,0-0.1,0.1-0.2,0.1
			c0,0-0.1,0.1-0.1,0.1c-0.1,0.1-0.1,0.2-0.2,0.2c-0.1,0.1-0.1,0.1-0.1,0.1c0,0-0.1,0-0.1,0c0,0-0.1,0-0.1,0c0,0-0.1,0-0.1-0.1
			c0,0,0-0.1,0-0.1c0,0,0-0.1,0-0.1c0,0,0-0.1,0-0.1c0,0,0-0.1,0.1-0.1c0,0,0.1-0.1,0.1-0.1c0,0,0.1,0,0.1,0c0,0,0.1,0,0.1,0
			l0.2-0.3c-0.1,0-0.2-0.1-0.3-0.1c-0.1,0-0.2,0-0.2,0.1c-0.1,0-0.1,0.1-0.2,0.2c-0.1,0.1-0.1,0.1-0.2,0.2c0,0.1-0.1,0.2-0.1,0.2
			c0,0.1,0,0.2,0,0.2c0,0.1,0,0.2,0.1,0.2C138.6,15.2,138.6,15.2,138.7,15.3z"/>
		<path class="st0" d="M141.3,13.5l-0.6-0.4l0.2-0.3c0.1-0.1,0.1-0.1,0.2-0.1c0.1,0,0.1,0,0.2,0.1c0.1,0,0.1,0.1,0.2,0.1
			c0.1,0,0.1,0.1,0.2,0.1l0.2-0.3c0,0-0.1,0-0.1,0c0,0-0.1,0-0.1-0.1c0,0-0.1,0-0.1-0.1c0,0-0.1,0-0.1-0.1c0,0-0.1,0-0.1-0.1
			c0,0-0.1,0-0.1,0c0,0-0.1,0-0.1,0c0,0-0.1,0-0.1,0.1l0,0c0-0.1,0-0.2,0-0.3c0-0.1-0.1-0.2-0.2-0.2c-0.1,0-0.1-0.1-0.2-0.1
			c-0.1,0-0.1,0-0.2,0c-0.1,0-0.1,0-0.2,0.1c-0.1,0-0.1,0.1-0.2,0.2l-0.6,0.8l1.5,1.1L141.3,13.5z M140.1,12.6l0.3-0.4
			c0.1-0.1,0.1-0.1,0.2-0.1c0.1,0,0.1,0,0.2,0.1c0.1,0.1,0.1,0.1,0.1,0.2c0,0.1,0,0.1-0.1,0.2l-0.3,0.4L140.1,12.6z"/>
		<polygon class="st0" points="143.1,11.4 142.9,11.1 142.2,11.9 141.9,11.6 142.5,10.9 142.3,10.7 141.7,11.3 141.4,11.1 142,10.4 
			141.8,10.1 140.8,11.1 142.2,12.4 		"/>
		<path class="st0" d="M142.6,10.4c0.1,0,0.1,0,0.2,0c0.1,0,0.1,0,0.2,0c0.1,0,0.1-0.1,0.2-0.1c0.1,0,0.1-0.1,0.2-0.1
			c0.1,0,0.1-0.1,0.2-0.1c0.1,0,0.1,0,0.1,0c0,0,0.1,0,0.1,0.1c0,0,0,0.1,0,0.1c0,0,0,0.1,0,0.1c0,0,0,0.1-0.1,0.1
			c0,0-0.1,0.1-0.1,0.1c0,0-0.1,0.1-0.1,0.1c0,0-0.1,0-0.1,0c0,0-0.1,0-0.1,0c0,0-0.1-0.1-0.1-0.1l-0.3,0.3c0.1,0.1,0.2,0.1,0.2,0.2
			c0.1,0,0.2,0,0.3,0c0.1,0,0.2,0,0.3-0.1c0.1,0,0.2-0.1,0.3-0.2c0.1-0.1,0.2-0.2,0.2-0.2c0.1-0.1,0.1-0.2,0.1-0.3
			c0-0.1,0-0.2,0-0.2c0-0.1-0.1-0.1-0.1-0.2c-0.1-0.1-0.1-0.1-0.2-0.2c-0.1,0-0.2,0-0.2,0c-0.1,0-0.1,0-0.2,0.1
			c-0.1,0-0.1,0-0.1,0.1c-0.1,0.1-0.2,0.1-0.3,0.1c-0.1,0-0.1,0.1-0.2,0.1c0,0-0.1,0-0.1,0c0,0,0,0-0.1-0.1c0,0,0-0.1,0-0.1
			c0,0,0-0.1,0-0.1c0,0,0-0.1,0-0.1c0,0,0-0.1,0.1-0.1c0,0,0.1-0.1,0.1-0.1c0,0,0.1,0,0.1,0c0,0,0.1,0,0.1,0c0,0,0.1,0,0.1,0.1
			l0.3-0.3c-0.1-0.1-0.1-0.1-0.2-0.2c-0.1,0-0.2,0-0.2,0c-0.1,0-0.2,0-0.2,0.1c-0.1,0-0.2,0.1-0.2,0.2c-0.1,0.1-0.1,0.1-0.2,0.2
			c0,0.1-0.1,0.1-0.1,0.2c0,0.1,0,0.2,0,0.2c0,0.1,0.1,0.2,0.1,0.2C142.5,10.3,142.5,10.3,142.6,10.4z"/>
		<polygon class="st0" points="145.7,9.4 145.5,9.1 144.7,9.7 144.5,9.3 145.2,8.8 145,8.5 144.3,9 144.1,8.7 144.9,8.1 144.7,7.9 
			143.5,8.6 144.6,10.2 		"/>
		<path class="st0" d="M146.3,9.1L146,8.4l0.4-0.2c0.1,0,0.2-0.1,0.2,0c0.1,0,0.1,0.1,0.2,0.1c0,0.1,0.1,0.1,0.1,0.2
			c0,0.1,0.1,0.1,0.1,0.2l0.4-0.2c0,0-0.1,0-0.1-0.1c0,0-0.1-0.1-0.1-0.1c0,0,0-0.1-0.1-0.1c0,0,0-0.1-0.1-0.1c0,0-0.1-0.1-0.1-0.1
			c0,0-0.1-0.1-0.1-0.1c0,0-0.1,0-0.1-0.1c0,0-0.1,0-0.1,0l0,0c0.1-0.1,0.1-0.2,0.1-0.3c0-0.1,0-0.2-0.1-0.3c0-0.1-0.1-0.1-0.1-0.2
			c-0.1,0-0.1-0.1-0.2-0.1c-0.1,0-0.1,0-0.2,0c-0.1,0-0.1,0-0.2,0.1l-0.9,0.5l0.9,1.6L146.3,9.1z M145.6,7.7l0.4-0.2
			c0.1,0,0.2-0.1,0.2,0c0.1,0,0.1,0.1,0.2,0.1c0,0.1,0.1,0.2,0,0.2c0,0.1-0.1,0.1-0.2,0.2l-0.4,0.2L145.6,7.7z"/>
		<polygon class="st0" points="148.3,8.2 148.2,6.2 147.8,6.4 147.9,7.7 147.9,7.7 147,6.7 146.7,6.8 147.9,8.3 		"/>
		<polygon class="st0" points="150.3,7.5 150.3,7.2 149.3,7.5 149.2,7 150,6.8 150,6.5 149.1,6.7 149,6.3 149.9,6.1 149.8,5.8 
			148.5,6.1 149,7.9 		"/>
		<path class="st0" d="M151.3,7.4c0.1,0,0.3-0.1,0.4-0.1c0.1-0.1,0.2-0.1,0.2-0.2c0.1-0.1,0.1-0.2,0.1-0.3c0-0.1,0-0.2,0-0.4
			c0-0.2-0.1-0.3-0.1-0.4c-0.1-0.1-0.1-0.2-0.2-0.3c-0.1-0.1-0.2-0.1-0.3-0.1c-0.1,0-0.2,0-0.3,0l-0.8,0.1l0.3,1.8L151.3,7.4z
			 M151,5.9c0.1,0,0.2,0,0.3,0c0.1,0,0.1,0,0.2,0.1c0,0,0.1,0.1,0.1,0.2c0,0.1,0.1,0.2,0.1,0.2c0,0.1,0,0.2,0,0.3
			c0,0.1,0,0.1-0.1,0.2c0,0-0.1,0.1-0.1,0.1c-0.1,0-0.1,0-0.2,0.1l-0.4,0.1l-0.2-1.2L151,5.9z"/>
		<path class="st0" d="M164,30.4c0.1-0.7,0-1.3-0.5-2c2.3-1.3,3.6-3.3,3.1-4.9c-0.2-0.6-0.8-1.1-1.5-1.4c1.2-2.4,1.3-4.7,0-5.7
			c-0.5-0.4-1.2-0.5-2-0.4c-0.2-2.7-1.5-4.7-3.2-4.8c-0.7,0-1.3,0.2-1.9,0.7c-1.6-2.1-3.8-3.1-5.3-2.3c-0.6,0.3-1,0.9-1.2,1.7
			c-2.5-0.9-4.9-0.6-5.7,0.9c-0.3,0.6-0.3,1.3-0.1,2c-2.6,0.6-4.4,2.2-4.3,3.8c0,0.7,0.4,1.3,1,1.8c-1.8,1.9-2.6,4.2-1.6,5.5
			c0.4,0.5,1,0.8,1.8,0.9c-0.5,2.6,0.1,4.9,1.7,5.5c0.6,0.2,1.3,0.2,2-0.2c1,2.5,2.8,4.1,4.4,3.7c0.7-0.1,1.2-0.6,1.6-1.3
			c2.2,1.6,4.5,1.9,5.7,0.8c0.5-0.5,0.7-1.1,0.7-1.9C161.5,32.9,163.7,32,164,30.4z M152.1,31.8c-1.4-1.4-2.2-3.1-2.3-4.3
			c0.1-0.1,0.1-0.3,0.2-0.4c0.1-0.3,0.2-0.7,0.3-1c0.4-0.3,0.9-0.5,1.4-0.4c0.2,0.3,0.4,0.7,0.5,1c-0.3,0.3-0.5,0.7-0.6,1.1
			c-0.2,1,0.3,2.1,1.4,3c0,0.6-0.1,1.2-0.3,1.7C152.5,32.2,152.3,32,152.1,31.8z M147.3,29.5c-0.4-2-0.2-3.8,0.5-4.9
			c0.1-0.1,0.2-0.2,0.4-0.2c0.3-0.2,0.6-0.4,0.8-0.7c0.5-0.1,1,0.1,1.4,0.4c0,0.4-0.1,0.8-0.1,1.2c-0.4,0.1-0.8,0.3-1.1,0.6
			c-0.7,0.7-0.9,1.9-0.5,3.3c-0.4,0.5-0.7,0.9-1.1,1.3C147.5,30.1,147.4,29.8,147.3,29.5z M151.7,12.8c0.3,0.1,0.5,0.2,0.8,0.4
			c1.8,1,3,2.3,3.4,3.5c0,0.2,0,0.3,0,0.5c0,0.4,0,0.7,0,1.1c-0.2,0.4-0.7,0.7-1.2,0.8c-0.3-0.2-0.5-0.5-0.8-0.8
			c0.2-0.4,0.3-0.8,0.3-1.2c-0.1-1-0.9-1.9-2.2-2.5C151.8,13.9,151.7,13.3,151.7,12.8z M157.7,14.1c1,1.8,1.3,3.6,1,4.8
			c-0.1,0.1-0.2,0.2-0.3,0.4c-0.2,0.3-0.4,0.6-0.6,0.9c-0.4,0.2-1,0.2-1.5,0c-0.1-0.4-0.2-0.7-0.2-1.1c0.4-0.2,0.7-0.5,0.9-0.9
			c0.5-0.9,0.3-2.1-0.5-3.3c0.2-0.6,0.5-1.1,0.7-1.5C157.4,13.6,157.6,13.8,157.7,14.1z M158.6,25.5c-0.4-0.1-0.7-0.1-1-0.2
			c-0.4-0.3-0.6-0.8-0.6-1.4c0.3-0.2,0.6-0.4,0.9-0.6c0.4,0.3,0.8,0.4,1.2,0.5c1,0.1,2-0.6,2.8-1.8c0.6-0.1,1.2-0.1,1.7,0
			c-0.2,0.2-0.3,0.5-0.5,0.7c-1.2,1.6-2.7,2.7-4,2.9C158.9,25.6,158.8,25.5,158.6,25.5z M154.7,26.5c-0.3-0.2-0.5-0.4-0.8-0.5
			c0.3-0.2,0.8-0.3,1.2-0.4C154.9,25.9,154.8,26.2,154.7,26.5z M153.5,25.8c-0.6-0.3-1.2-0.5-1.7-0.6c-0.3-0.6-0.7-1.1-1.2-1.4
			c0-0.7,0-1.3-0.2-1.8c0.4-0.5,0.6-1.1,0.8-1.6c0.6-0.3,1.1-0.6,1.6-0.9c0.6,0.1,1.2,0.1,1.8,0.1c0.5,0.4,1,0.8,1.5,1.1
			c0.2,0.6,0.4,1.2,0.7,1.7c-0.2,0.6-0.3,1.2-0.3,1.8c-0.5,0.4-0.9,0.9-1.3,1.3C154.6,25.4,154,25.5,153.5,25.8z M153.2,25.9
			c-0.3,0.2-0.6,0.3-0.8,0.5c-0.1-0.3-0.3-0.6-0.4-0.9C152.4,25.6,152.8,25.7,153.2,25.9z M150.7,24.2c0.3,0.2,0.6,0.6,0.8,0.9
			c-0.3,0-0.7,0-0.9,0C150.6,24.8,150.6,24.5,150.7,24.2z M150.4,23.5c-0.3-0.2-0.5-0.4-0.8-0.5c0.2-0.2,0.4-0.5,0.6-0.7
			C150.3,22.7,150.4,23.1,150.4,23.5z M150.4,21.6c-0.1-0.3-0.2-0.6-0.4-0.9c0.3-0.1,0.6-0.2,0.9-0.3
			C150.8,20.9,150.6,21.2,150.4,21.6z M151.5,19.1c0.3,0.1,0.6,0.2,0.9,0.3c-0.3,0.3-0.6,0.5-1,0.7
			C151.5,19.7,151.5,19.4,151.5,19.1z M153.1,19.2c0.2-0.2,0.5-0.5,0.6-0.7c0.2,0.3,0.4,0.5,0.6,0.7C154,19.2,153.6,19.2,153.1,19.2
			z M156.1,20.1c-0.3-0.1-0.7-0.4-1.1-0.7c0.3-0.1,0.6-0.1,0.9-0.3C155.9,19.5,156,19.8,156.1,20.1z M157,22.5
			c0.2,0.3,0.4,0.5,0.6,0.7c-0.3,0.2-0.5,0.3-0.8,0.5C156.9,23.3,156.9,22.9,157,22.5z M156.5,20.6c0.3,0.1,0.6,0.2,0.9,0.3
			c-0.1,0.3-0.3,0.6-0.4,0.9C156.8,21.5,156.6,21.1,156.5,20.6z M156.5,24.3c0,0.3,0.1,0.7,0.1,0.9c-0.3,0-0.6,0-0.9,0
			C155.9,24.9,156.2,24.6,156.5,24.3z M161.7,17.6c-0.1,2-0.9,3.7-1.8,4.6c-0.2,0-0.3,0.1-0.5,0.2c-0.3,0.1-0.7,0.3-1,0.4
			c-0.5,0-0.9-0.3-1.3-0.8c0.1-0.3,0.3-0.7,0.4-1.1c0.4,0,0.9-0.1,1.2-0.3c0.9-0.5,1.4-1.6,1.4-3c0.5-0.4,1-0.7,1.5-0.9
			C161.7,17,161.7,17.3,161.7,17.6z M152.6,16.9c0.2,0.3,0.4,0.6,0.6,0.9c0,0.5-0.2,1-0.6,1.4c-0.4-0.1-0.7-0.2-1.1-0.3
			c0-0.4-0.2-0.9-0.4-1.2c-0.6-0.8-1.8-1.1-3.2-0.9c-0.5-0.4-0.8-0.9-1.1-1.3c0.3,0,0.6-0.1,0.9-0.1c2-0.1,3.8,0.3,4.8,1.1
			C152.5,16.6,152.6,16.7,152.6,16.9z M149.3,18.1c0.1,0.1,0.3,0.2,0.4,0.2c0.3,0.2,0.6,0.3,0.9,0.4c0.3,0.4,0.3,0.9,0.2,1.5
			c-0.3,0.1-0.7,0.3-1.1,0.4c-0.3-0.4-0.6-0.6-1-0.8c-1-0.4-2.1,0-3.2,0.9c-0.6-0.1-1.2-0.3-1.6-0.5c0.2-0.2,0.4-0.4,0.7-0.6
			C146.3,18.5,148.1,17.9,149.3,18.1z M147.6,21.1c0.2,0,0.3,0,0.5,0c0.4,0,0.7-0.1,1-0.1c0.4,0.2,0.8,0.6,1,1.1
			c-0.2,0.3-0.4,0.6-0.7,0.9c-0.4-0.1-0.9-0.2-1.3-0.1c-1,0.2-1.8,1.2-2.2,2.5c-0.6,0.2-1.1,0.4-1.6,0.4c0.1-0.3,0.2-0.6,0.3-0.8
			C145.3,23.1,146.5,21.7,147.6,21.1z M153,28.3c-0.1-0.4-0.2-0.7-0.3-1c0.1-0.5,0.5-0.9,1-1.2c0.3,0.2,0.7,0.4,1,0.6
			c-0.1,0.4-0.1,0.9,0.1,1.3c0.4,1,1.4,1.6,2.8,1.8c0.3,0.5,0.5,1.1,0.7,1.6c-0.3,0-0.6-0.1-0.9-0.1c-2-0.4-3.6-1.4-4.3-2.4
			C153.1,28.6,153.1,28.4,153,28.3z M156.2,27.7c-0.3-0.3-0.5-0.5-0.8-0.7c-0.2-0.5-0.1-1,0.2-1.5c0.4,0,0.8,0,1.2,0
			c0.2,0.4,0.4,0.8,0.7,1c0.8,0.6,2,0.6,3.3,0c0.6,0.3,1,0.6,1.4,1c-0.3,0.1-0.5,0.2-0.8,0.3c-1.9,0.7-3.8,0.8-4.9,0.2
			C156.4,27.9,156.3,27.8,156.2,27.7z M165.5,23.3c0.5,1.3-0.8,2.9-3,4c-0.4-0.3-0.9-0.7-1.4-0.9c1.1-0.6,2.2-1.5,3.1-2.7
			c0.3-0.3,0.5-0.7,0.7-1C165.2,22.8,165.4,23,165.5,23.3z M164,16.8c1.1,0.8,0.9,2.9-0.3,5c-0.5-0.1-1.1-0.1-1.7,0
			c0.6-1.1,1-2.5,1.1-4c0-0.4,0-0.8,0-1.3C163.5,16.5,163.8,16.6,164,16.8z M159.2,12.1c1.3,0.1,2.3,2,2.4,4.4
			c-0.5,0.2-1,0.6-1.5,0.9c-0.1-1.2-0.4-2.6-1.2-4c-0.2-0.4-0.4-0.7-0.7-1.1C158.6,12.2,158.9,12.1,159.2,12.1z M152.7,10.7
			c1.2-0.6,3,0.4,4.4,2.4c-0.3,0.5-0.5,1-0.7,1.6c-0.7-1-1.8-2-3.2-2.7c-0.4-0.2-0.8-0.4-1.1-0.5C152.2,11.1,152.4,10.9,152.7,10.7z
			 M146.5,13.1c0.6-1.2,2.7-1.3,5-0.4c0,0.5,0.1,1.1,0.2,1.7c-1.1-0.5-2.6-0.7-4.1-0.6c-0.4,0-0.8,0.1-1.2,0.2
			C146.3,13.7,146.3,13.4,146.5,13.1z M142.5,18.5c-0.1-1.3,1.6-2.6,4-3c0.3,0.5,0.7,0.9,1.1,1.3c-1.2,0.2-2.5,0.8-3.8,1.7
			c-0.3,0.3-0.7,0.5-1,0.8C142.7,19.1,142.5,18.8,142.5,18.5z M142.1,25.1c-0.8-1.1,0-3,1.7-4.7c0.5,0.2,1,0.4,1.7,0.5
			c-0.9,0.8-1.7,2.1-2.2,3.5c-0.1,0.4-0.3,0.8-0.4,1.2C142.5,25.5,142.3,25.4,142.1,25.1z M145.3,31c-1.3-0.5-1.7-2.5-1.1-4.9
			c0.5-0.1,1.1-0.2,1.7-0.5c-0.3,1.2-0.3,2.7,0,4.2c0.1,0.4,0.2,0.8,0.3,1.2C145.9,31.1,145.6,31.1,145.3,31z M151.2,34.1
			c-1.3,0.3-2.8-1.2-3.6-3.5c0.4-0.4,0.8-0.8,1.1-1.3c0.4,1.2,1.2,2.4,2.3,3.5c0.3,0.3,0.6,0.6,0.9,0.8
			C151.8,33.9,151.5,34.1,151.2,34.1z M157.9,33.6c-0.9,0.9-3,0.5-4.9-1c0.1-0.5,0.2-1.1,0.3-1.7c1,0.8,2.3,1.4,3.8,1.7
			c0.4,0.1,0.8,0.2,1.2,0.2C158.2,33.1,158.1,33.4,157.9,33.6z M158.5,31.3c-0.2-0.5-0.4-1-0.7-1.6c1.2,0.1,2.7-0.1,4.1-0.6
			c0.4-0.1,0.8-0.3,1.1-0.5c0.1,0.3,0.2,0.6,0.1,0.9C162.9,30.9,160.9,31.6,158.5,31.3z"/>
	</g>
</g>
</svg>
