<?xml version="1.0" encoding="utf-8"?>
<!-- Generator: Adobe Illustrator 27.8.1, SVG Export Plug-In . SVG Version: 6.00 Build 0)  -->
<svg version="1.1" id="Ebene_1" xmlns="http://www.w3.org/2000/svg" xmlns:xlink="http://www.w3.org/1999/xlink" x="0px" y="0px"
	 viewBox="0 0 60.7 60.8" style="enable-background:new 0 0 60.7 60.8;" xml:space="preserve">
<style type="text/css">
	.st0{fill:#FFFFFF;}
</style>
<g>
	<g>
		<path class="st0" d="M30.9,5.7c-0.2,0-0.4,0-0.6,0s-0.4,0-0.6,0C16.4,6,5.7,16.9,5.7,30.4s10.8,24.4,24.2,24.7c0.2,0,0.4,0,0.6,0
			s0.4,0,0.6,0c13.4-0.3,24.2-11.3,24.2-24.7S44.3,6,30.9,5.7z M47.2,29.7c-0.1-3.9-0.8-7.6-1.9-10.8h5.4c1.8,3.2,2.9,6.9,3,10.8
			H47.2z M35.7,29.7H25c0-3.9,0.3-7.6,0.7-10.8H35C35.4,22.2,35.7,25.9,35.7,29.7z M35,41.9h-9.2c-0.5-3.3-0.7-7-0.7-10.8h10.7
			C35.7,34.9,35.4,38.6,35,41.9z M34,13.6c0.3,1.2,0.6,2.6,0.8,4H26c0.2-1.4,0.5-2.8,0.8-4C28,8.7,29.4,7,30.4,7S32.8,8.7,34,13.6z
			 M32.9,7.3c4.3,1.1,8.1,4.9,10.4,10.2h-7.2C35.4,13.1,34.4,9.4,32.9,7.3z M24.6,17.5h-7.2c2.3-5.3,6.1-9.1,10.4-10.2
			C26.4,9.4,25.3,13.1,24.6,17.5z M24.4,18.9c-0.5,3.4-0.7,7.1-0.7,10.8h-8.8c0.1-3.9,0.8-7.6,2-10.8C16.9,18.9,24.4,18.9,24.4,18.9
			z M23.7,31.1c0,3.7,0.3,7.4,0.7,10.8h-7.6c-1.2-3.2-1.9-6.9-2-10.8C14.8,31.1,23.7,31.1,23.7,31.1z M24.6,43.2
			c0.7,4.4,1.8,8.2,3.2,10.2c-4.3-1.1-8.1-4.9-10.4-10.2H24.6z M26.8,47.2c-0.3-1.2-0.6-2.6-0.8-4h8.8c-0.2,1.4-0.5,2.8-0.8,4
			c-1.2,4.8-2.7,6.5-3.6,6.5S28,52,26.8,47.2z M36.1,43.2h7.2c-2.3,5.3-6.1,9.1-10.4,10.2C34.4,51.4,35.4,47.7,36.1,43.2z
			 M36.3,41.9c0.5-3.4,0.7-7.1,0.7-10.8h8.8c-0.1,3.9-0.8,7.6-2,10.8H36.3z M37.1,29.7c0-3.7-0.3-7.4-0.7-10.8H44
			c1.2,3.2,1.9,6.9,2,10.8H37.1z M49.9,17.5h-5.1c-1.7-4-4.1-7.2-6.9-9.3C42.8,9.9,47,13.2,49.9,17.5z M22.9,8.3
			c-2.9,2.1-5.3,5.3-6.9,9.3h-5.1C13.7,13.2,17.9,9.9,22.9,8.3z M10,18.9h5.4c-1.2,3.3-1.9,6.9-1.9,10.8H7
			C7.1,25.8,8.2,22.1,10,18.9z M13.5,31.1c0.1,3.9,0.8,7.6,1.9,10.8H10C8.2,38.7,7.1,35,7,31.1H13.5z M10.9,43.2H16
			c1.7,4,4.1,7.2,6.9,9.3C17.9,50.8,13.7,47.5,10.9,43.2z M37.9,52.5c2.9-2.1,5.3-5.3,6.9-9.3h5.1C47,47.5,42.8,50.8,37.9,52.5z
			 M50.7,41.9h-5.4c1.2-3.3,1.9-6.9,1.9-10.8h6.5C53.6,35,52.5,38.7,50.7,41.9z"/>
	</g>
	<g>
		<g>
			<g>
				<g>
					<path class="st0" d="M32.9,1c0-0.1-0.1-0.1-0.2-0.2c-0.1-0.1-0.1-0.1-0.2-0.1c-0.1,0-0.2-0.1-0.3-0.1c-0.2,0-0.3,0-0.4,0.1
						s-0.2,0.1-0.3,0.2c-0.1,0.1-0.1,0.2-0.2,0.4c0,0.1-0.1,0.3-0.1,0.4s0,0.3,0,0.4s0.1,0.3,0.1,0.4s0.2,0.2,0.3,0.3
						c0.1,0.1,0.2,0.1,0.4,0.1c0.2,0,0.4,0,0.5-0.2c0.1-0.1,0.2-0.3,0.3-0.5h0.7c0,0.2-0.1,0.4-0.2,0.6C33.2,3,33.1,3.1,33,3.2
						s-0.3,0.2-0.5,0.2c-0.2,0.1-0.4,0.1-0.6,0.1c-0.3,0-0.5-0.1-0.7-0.2c-0.2-0.1-0.4-0.2-0.5-0.4s-0.2-0.3-0.3-0.6
						c-0.1-0.2-0.1-0.4-0.1-0.7c0-0.2,0.1-0.5,0.2-0.7s0.2-0.4,0.4-0.5c0.1-0.1,0.3-0.3,0.5-0.3C31.9,0,32.1,0,32.4,0
						c0.2,0,0.4,0,0.5,0.1c0.2,0.1,0.3,0.1,0.4,0.3s0.2,0.2,0.3,0.4s0.1,0.3,0.1,0.5H33C33,1.2,33,1.1,32.9,1z"/>
				</g>
				<g>
					<path class="st0" d="M34.4,1.2c0.1-0.2,0.3-0.4,0.4-0.5s0.4-0.2,0.6-0.3c0.2-0.1,0.4-0.1,0.7,0c0.3,0,0.5,0.1,0.6,0.3
						C36.9,0.8,37,1,37.1,1.2c0.1,0.2,0.2,0.4,0.2,0.6s0,0.5,0,0.7c0,0.2-0.1,0.4-0.2,0.6c-0.1,0.2-0.3,0.3-0.4,0.5
						c-0.2,0.1-0.4,0.2-0.6,0.3c-0.2,0-0.4,0-0.7,0c-0.2,0-0.5-0.1-0.6-0.3c-0.2-0.1-0.3-0.3-0.4-0.5c-0.1-0.2-0.2-0.4-0.2-0.6
						c0-0.2,0-0.4,0-0.7C34.2,1.6,34.3,1.4,34.4,1.2z M34.9,2.4c0,0.1,0,0.3,0.1,0.4c0,0.1,0.1,0.2,0.2,0.3c0.1,0.1,0.2,0.1,0.4,0.2
						c0.2,0,0.3,0,0.4,0c0.1,0,0.2-0.1,0.3-0.2c0.1-0.1,0.2-0.2,0.2-0.3c0.1-0.1,0.1-0.3,0.1-0.4c0-0.1,0-0.3,0-0.4s0-0.3-0.1-0.4
						s-0.1-0.2-0.2-0.3c-0.1-0.1-0.2-0.1-0.4-0.2c-0.2,0-0.3,0-0.4,0s-0.2,0.1-0.3,0.2S35,1.5,35,1.6c-0.1,0.1-0.1,0.3-0.1,0.4
						C34.9,2.2,34.8,2.3,34.9,2.4z"/>
				</g>
				<g>
					<path class="st0" d="M39.8,1.5c0.2,0.1,0.4,0.1,0.5,0.2s0.2,0.2,0.3,0.3s0.1,0.2,0.1,0.4c0,0.1,0,0.3-0.1,0.4
						c0,0.1-0.1,0.2-0.2,0.4c-0.1,0.1-0.2,0.2-0.3,0.3s-0.3,0.1-0.4,0.1c-0.2,0-0.3,0-0.5-0.1l-0.7-0.2l-0.4,1.1l-0.7-0.2l1-3.2
						L39.8,1.5z M39.2,2.9c0.1,0,0.2,0,0.2,0.1c0.1,0,0.1,0,0.2,0c0.1,0,0.1,0,0.2-0.1s0.1-0.1,0.1-0.2c0-0.1,0-0.2,0-0.3
						s0-0.1-0.1-0.2c0-0.1-0.1-0.1-0.2-0.1c-0.1,0-0.1-0.1-0.2-0.1l-0.5-0.2l-0.3,0.9L39.2,2.9z"/>
				</g>
				<g>
					<path class="st0" d="M41.3,2L42,2.3l0.2,1.5L43.5,3l0.7,0.3l-2,1.4l-0.5,1.2L41,5.6l0.5-1.2L41.3,2z"/>
				</g>
				<g>
					<path class="st0" d="M46.2,4.5c0.1,0.1,0.2,0.2,0.3,0.3c0.1,0.1,0.1,0.2,0.2,0.3c0,0.1,0,0.2,0,0.3c0,0.1-0.1,0.2-0.1,0.3
						c-0.1,0.2-0.2,0.3-0.4,0.4c-0.1,0.1-0.3,0.1-0.5,0.1l0,0c0.1,0.1,0.1,0.1,0.1,0.2s0,0.1,0,0.2s0,0.2,0,0.2
						c0,0.1-0.1,0.2-0.1,0.2s-0.1,0.1-0.1,0.2s-0.1,0.1-0.1,0.2s-0.1,0.1-0.1,0.2s0,0.1,0,0.2l-0.6-0.4c0-0.1,0.1-0.2,0.1-0.4
						c0.1,0,0.2-0.1,0.2-0.3c0.1-0.2,0.1-0.3,0.1-0.4S45.1,6.1,44.9,6l-0.6-0.4l-0.7,1.1L43,6.4l1.7-2.8L46.2,4.5z M45.2,5.6
						c0.1,0.1,0.3,0.1,0.4,0.1c0.1,0,0.2-0.1,0.3-0.2C46,5.3,46,5.2,46,5.1s-0.1-0.2-0.3-0.3L45,4.4l-0.5,0.8L45.2,5.6z"/>
				</g>
				<g>
					<path class="st0" d="M48.3,5.9l-1.9,2.7l-0.6-0.4l1.9-2.7L48.3,5.9z"/>
				</g>
				<g>
					<path class="st0" d="M48.3,10.1C48.1,10,48,10,47.9,9.9c-0.2-0.2-0.3-0.3-0.4-0.5c-0.1-0.2-0.1-0.4-0.2-0.6
						c0-0.2,0-0.4,0.1-0.6c0.1-0.2,0.2-0.4,0.4-0.6s0.3-0.3,0.5-0.5c0.2-0.1,0.4-0.2,0.6-0.2c0.2,0,0.4,0,0.6,0.1s0.4,0.2,0.6,0.3
						c0.1,0.1,0.2,0.2,0.3,0.4c0.1,0.1,0.1,0.3,0.2,0.5c0,0.2,0,0.3,0,0.5S50.5,9,50.4,9.2l-0.5-0.5C50,8.4,50.1,8.3,50,8.1
						c0-0.2-0.1-0.3-0.3-0.4c-0.1-0.1-0.3-0.2-0.4-0.2c-0.1,0-0.3,0-0.4,0c-0.1,0-0.2,0.1-0.4,0.2c-0.1,0.1-0.2,0.2-0.3,0.3
						C48.1,8.1,48,8.2,48,8.3c0.1,0.2,0,0.3,0,0.4c0,0.1,0,0.2,0,0.4c0,0.1,0.1,0.2,0.3,0.3c0.2,0.2,0.4,0.2,0.5,0.2
						c0.2,0,0.4-0.1,0.5-0.3l-0.6-0.5l0.4-0.4l1.1,0.9L49,10.7l-0.4-0.3l0.2-0.3C48.7,10.2,48.5,10.2,48.3,10.1z"/>
				</g>
				<g>
					<path class="st0" d="M52.3,9.4l-0.9,0.9l0.9,1l0.9-0.9l0.5,0.5l-2.4,2.2l-0.5-0.5l1.1-1l-0.9-1l-1.1,1l-0.5-0.5l2.4-2.2
						L52.3,9.4z"/>
				</g>
				<g>
					<path class="st0" d="M53.7,11.8l0.5-0.4l1.6,2.2L55.3,14l-0.6-0.8l-2.2,1.6l-0.4-0.6l2.2-1.6L53.7,11.8z"/>
				</g>
				<g>
					<path class="st0" d="M55.3,14.6c0.2,0,0.5,0,0.7,0.1s0.4,0.2,0.6,0.3c0.2,0.1,0.3,0.3,0.4,0.5c0.1,0.2,0.2,0.4,0.2,0.6
						c0,0.2,0,0.4,0,0.7s-0.1,0.4-0.3,0.6s-0.3,0.3-0.6,0.5c-0.2,0.1-0.5,0.2-0.7,0.2s-0.5,0-0.7-0.1s-0.4-0.2-0.6-0.3
						c-0.2-0.1-0.3-0.3-0.4-0.5c-0.1-0.2-0.2-0.4-0.2-0.6s0-0.4,0-0.7c0.1-0.2,0.1-0.4,0.3-0.6c0.1-0.2,0.3-0.3,0.6-0.5
						C54.8,14.7,55,14.6,55.3,14.6z M54.4,15.6c-0.1,0.1-0.2,0.3-0.2,0.5c0,0.2-0.1,0.3,0,0.5c0,0.2,0.1,0.3,0.2,0.5
						c0.1,0.2,0.2,0.3,0.3,0.4s0.3,0.2,0.4,0.2c0.2,0,0.3,0.1,0.5,0c0.2,0,0.4-0.1,0.5-0.2c0.2-0.1,0.3-0.2,0.4-0.4
						c0.1-0.1,0.2-0.3,0.2-0.5s0.1-0.3,0-0.5c0-0.2-0.1-0.3-0.2-0.5c-0.1-0.2-0.2-0.3-0.3-0.4c-0.1-0.1-0.3-0.2-0.4-0.2
						c-0.2,0-0.3-0.1-0.5,0c-0.2,0-0.4,0.1-0.5,0.2C54.6,15.3,54.5,15.4,54.4,15.6z M55.3,17.4c-0.1,0-0.2,0-0.3-0.1
						c-0.1,0-0.2-0.1-0.3-0.2s-0.1-0.1-0.2-0.2c-0.1-0.1-0.1-0.3-0.1-0.4s0-0.3,0-0.4s0.1-0.2,0.2-0.3c0.1-0.1,0.2-0.2,0.3-0.3
						s0.3-0.1,0.4-0.1c0.1,0,0.3,0,0.4,0c0.1,0,0.2,0.1,0.3,0.2c0.1,0.1,0.2,0.2,0.3,0.3s0.1,0.2,0.1,0.3c0,0.1,0,0.2,0,0.3
						c0,0.1-0.1,0.2-0.1,0.3c-0.1,0.1-0.1,0.2-0.2,0.2L56,16.7c0.1-0.1,0.1-0.2,0.1-0.3c0-0.1,0-0.2-0.1-0.3
						c-0.1-0.2-0.2-0.2-0.4-0.3c-0.2,0-0.3,0-0.5,0.1c-0.1,0-0.1,0.1-0.2,0.2c-0.1,0.1-0.1,0.1-0.1,0.2s0,0.1,0,0.2s0,0.2,0.1,0.2
						c0.1,0.1,0.1,0.2,0.2,0.2c0.1,0,0.2,0,0.3,0l0.2,0.3C55.5,17.3,55.4,17.4,55.3,17.4z"/>
				</g>
				<g>
					<path class="st0" d="M58.6,19.3L56,21.7L55.8,21l0.6-0.5l-0.5-1.1h-0.8l-0.3-0.7l3.5-0.1L58.6,19.3z M56.8,20.1l1-0.8l0,0
						l-1.3,0.1L56.8,20.1z"/>
				</g>
				<g>
					<path class="st0" d="M59.5,21.6l-2.6,0.7l0.4,1.5L56.7,24l-0.6-2.2l3.2-0.9L59.5,21.6z"/>
				</g>
				<g>
					<path class="st0" d="M60.2,24.6L57.5,25l0.3,1.6l-0.6,0.1l-0.4-2.3l3.3-0.6L60.2,24.6z"/>
				</g>
				<g>
					<path class="st0" d="M60.7,30c0,0.1,0,0.3-0.1,0.4c0,0.1-0.1,0.2-0.2,0.3c-0.1,0.1-0.2,0.2-0.3,0.2c0,0.1-0.1,0.1-0.2,0.1
						c-0.2,0-0.4,0-0.5-0.1s-0.3-0.2-0.3-0.4l0,0c0,0.1-0.1,0.2-0.1,0.2c0,0.1-0.1,0.1-0.2,0.1c-0.1,0-0.1,0.1-0.2,0.1
						c-0.1,0-0.2,0-0.2,0c-0.1,0-0.1,0-0.2,0c-0.1,0-0.1,0-0.2,0c-0.1,0-0.1,0-0.2,0c-0.1,0-0.1,0-0.2,0.1v-0.7
						c0.1,0,0.2-0.1,0.4-0.1c0.1,0,0.3,0,0.4-0.1c0.2,0,0.3-0.1,0.4-0.2s0.1-0.2,0.1-0.4v-0.7h-1.3v-0.7l3.3-0.1L60.7,30z
						 M59.2,29.8c0,0.2,0,0.3,0.1,0.4s0.2,0.1,0.4,0.1s0.3,0,0.3-0.1c0.1-0.1,0.1-0.2,0.1-0.4V29h-0.9L59.2,29.8z"/>
				</g>
				<g>
					<path class="st0" d="M60.7,32.5l-3.3-0.2v-0.7l3.3,0.2V32.5z"/>
				</g>
				<g>
					<path class="st0" d="M57.1,34.8c0-0.2-0.1-0.3,0-0.5c0-0.3,0.1-0.5,0.2-0.7c0.1-0.2,0.3-0.3,0.4-0.5c0.2-0.1,0.4-0.2,0.6-0.2
						c0.2,0,0.4,0,0.7,0c0.2,0,0.5,0.1,0.7,0.2c0.2,0.1,0.4,0.2,0.5,0.4s0.2,0.3,0.3,0.6c0.1,0.2,0.1,0.4,0,0.7
						c0,0.2-0.1,0.3-0.1,0.5c-0.1,0.1-0.2,0.3-0.3,0.4c-0.1,0.1-0.3,0.2-0.4,0.3c-0.2,0-0.4,0-0.5,0l0.1-0.7c0.2,0,0.3-0.1,0.4-0.2
						c0.1-0.1,0.2-0.3,0.2-0.4c0-0.2,0-0.3,0-0.4c0-0.1-0.1-0.2-0.2-0.3c-0.1-0.1-0.2-0.2-0.3-0.2c-0.1-0.1-0.3-0.1-0.4-0.1
						c-0.1,0-0.3,0-0.4,0c-0.1,0-0.3,0-0.4,0.1c-0.1,0.1-0.2,0.1-0.3,0.2c-0.1,0.1-0.1,0.2-0.2,0.4c0,0.2,0,0.4,0.1,0.6
						c0.1,0.1,0.3,0.2,0.5,0.3l0.1-0.7l0.5,0.1L58.7,36L57,35.7l0.1-0.5h0.4C57.3,35.1,57.2,34.9,57.1,34.8z"/>
				</g>
				<g>
					<path class="st0" d="M59.8,37.8l-1.2-0.3l-0.4,1.3l1.2,0.3l-0.2,0.7L56,38.9l0.2-0.7l1.4,0.4l0.4-1.3l-1.4-0.4l0.2-0.7l3.2,0.9
						L59.8,37.8z"/>
				</g>
				<g>
					<path class="st0" d="M58.5,40.2l0.6,0.2l-1,2.5l-0.6-0.2l0.4-0.9l-2.5-1l0.3-0.7l2.5,1L58.5,40.2z"/>
				</g>
				<g>
					<path class="st0" d="M55.3,42.8c-0.1,0-0.2,0-0.2,0.1C55,42.9,55,43,54.9,43c-0.1,0.1-0.1,0.1-0.2,0.2c0,0.1-0.1,0.1-0.1,0.2
						c0,0.1,0,0.1,0,0.2c0,0.1,0,0.1,0,0.2c0,0.1,0.1,0.1,0.2,0.2c0.1,0,0.2,0,0.2,0c0.1,0,0.2-0.1,0.2-0.1c0.1-0.1,0.2-0.1,0.2-0.2
						c0.1-0.1,0.2-0.2,0.2-0.3c0.1-0.1,0.2-0.2,0.3-0.3s0.2-0.1,0.3-0.2c0.1,0,0.2-0.1,0.3-0.1s0.2,0,0.4,0.1s0.3,0.2,0.3,0.3
						c0.1,0.1,0.1,0.3,0.1,0.4c0,0.1,0,0.3,0,0.4c0,0.1-0.1,0.3-0.2,0.4c-0.1,0.2-0.2,0.3-0.3,0.4c-0.1,0.1-0.2,0.2-0.4,0.3
						c-0.1,0.1-0.3,0.1-0.4,0.1c-0.2,0-0.3,0-0.5-0.1l0.3-0.6c0.1,0,0.2,0.1,0.2,0.1c0.1,0,0.1,0,0.2-0.1c0.1,0,0.1-0.1,0.2-0.1
						c0-0.1,0.1-0.1,0.1-0.2c0-0.1,0-0.1,0.1-0.2c0-0.1,0-0.1,0-0.2c0-0.1,0-0.1,0-0.2l-0.1-0.1c-0.1,0-0.1,0-0.2,0
						c0,0-0.1,0-0.2,0.1s-0.1,0.1-0.2,0.2c-0.1,0.1-0.2,0.2-0.3,0.4c0,0-0.1,0.1-0.2,0.2c-0.1,0.1-0.2,0.2-0.3,0.2
						c-0.1,0.1-0.2,0.1-0.4,0.1c-0.1,0-0.3,0-0.5-0.1c-0.1-0.1-0.2-0.2-0.3-0.3s-0.1-0.2-0.2-0.4s0-0.3,0-0.5s0.1-0.4,0.2-0.6
						c0.1-0.2,0.2-0.3,0.3-0.4c0.1-0.1,0.3-0.2,0.4-0.3c0.1-0.1,0.3-0.1,0.5-0.1s0.3,0.1,0.5,0.1L55.3,42.8
						C55.5,42.9,55.4,42.8,55.3,42.8z"/>
				</g>
				<g>
					<path class="st0" d="M54.4,49c-0.1,0.1-0.2,0.2-0.3,0.3s-0.2,0.1-0.3,0.1s-0.2,0-0.3,0s-0.2-0.1-0.3-0.2
						c-0.2-0.1-0.3-0.3-0.3-0.4c-0.1-0.2-0.1-0.3,0-0.5l0,0c-0.1,0.1-0.1,0.1-0.2,0.1c-0.1,0-0.2,0-0.2,0c-0.1,0-0.2,0-0.2-0.1
						c-0.1,0-0.2-0.1-0.2-0.1s-0.1-0.1-0.2-0.1c-0.1,0-0.1-0.1-0.2-0.1c-0.1,0-0.1-0.1-0.2-0.1c-0.1,0-0.1,0-0.2,0l0.4-0.6
						c0.1,0,0.2,0.1,0.3,0.2c0.1,0.1,0.2,0.2,0.4,0.2c0.2,0.1,0.3,0.1,0.4,0.1c0.1,0,0.2-0.1,0.3-0.2l0.4-0.6l-1-0.8l0.4-0.6l2.6,2
						L54.4,49z M53.3,47.9c-0.1,0.1-0.1,0.3-0.1,0.4s0.1,0.2,0.2,0.3c0.1,0.1,0.2,0.1,0.4,0.1c0.1,0,0.2-0.1,0.3-0.2l0.5-0.6
						l-0.7-0.6L53.3,47.9z"/>
				</g>
				<g>
					<path class="st0" d="M51.5,52.2l-0.4-0.4l1.2-1.3L51.8,50l-1.1,1.2l-0.4-0.4l1.1-1.2L50.8,49l-1.2,1.3L49.1,50l1.7-1.8l2.4,2.3
						L51.5,52.2z"/>
				</g>
				<g>
					<path class="st0" d="M48.9,51.2c-0.1,0-0.2,0-0.2,0c-0.1,0-0.2,0-0.2,0.1c-0.1,0-0.2,0.1-0.2,0.2l-0.1,0.1
						c0,0.1-0.1,0.1-0.1,0.2c0,0.1,0,0.1,0,0.2c0,0.1,0,0.1,0.1,0.2c0.1,0.1,0.1,0.1,0.2,0.1c0.1,0,0.2,0,0.3,0s0.2-0.1,0.3-0.1
						c0.1-0.1,0.2-0.1,0.3-0.2c0.1-0.1,0.2-0.1,0.3-0.1s0.2-0.1,0.4-0.1c0.1,0,0.2,0,0.3,0.1c0.1,0,0.2,0.1,0.3,0.2
						c0.1,0.1,0.2,0.3,0.2,0.4c0,0.1,0,0.3,0,0.4c0,0.1-0.1,0.3-0.2,0.4c-0.1,0.1-0.2,0.2-0.3,0.3s-0.3,0.2-0.4,0.3
						C49.8,54,49.6,54,49.5,54c-0.2,0-0.3,0-0.4-0.1c-0.1-0.1-0.3-0.2-0.4-0.3l0.5-0.5c0.1,0.1,0.1,0.1,0.2,0.1c0.1,0,0.1,0,0.2,0
						c0.1,0,0.1,0,0.2-0.1c0.1,0,0.1-0.1,0.2-0.1l0.1-0.1c0,0,0.1-0.1,0.1-0.2c0-0.1,0-0.1,0-0.2c0-0.1,0-0.1-0.1-0.2L50,52.2
						c0,0-0.1,0-0.2,0c-0.1,0-0.2,0.1-0.3,0.1c-0.1,0.1-0.3,0.1-0.5,0.2c-0.1,0-0.1,0.1-0.2,0.1c-0.1,0-0.2,0.1-0.3,0.1
						s-0.3,0-0.4,0c-0.1,0-0.3-0.1-0.4-0.3c-0.1-0.1-0.2-0.2-0.2-0.4c0-0.1,0-0.3,0-0.4c0-0.1,0.1-0.3,0.2-0.4
						c0.1-0.2,0.2-0.3,0.4-0.4c0.1-0.1,0.3-0.2,0.4-0.3c0.2-0.1,0.3-0.1,0.5-0.1s0.3,0,0.5,0.1s0.3,0.2,0.4,0.3l-0.5,0.5
						C49.1,51.3,49,51.3,48.9,51.2z"/>
				</g>
				<g>
					<path class="st0" d="M46.4,56.3L46,55.7l1.4-1L47,54.1L45.7,55l-0.3-0.5l1.3-0.9L46.3,53l-1.5,1l-0.3-0.5l2.1-1.4l1.9,2.7
						L46.4,56.3z"/>
				</g>
				<g>
					<path class="st0" d="M44.1,57.5c-0.1,0.1-0.3,0.1-0.4,0.1c-0.1,0-0.2,0-0.4,0c-0.1,0-0.2-0.1-0.3-0.2c-0.1-0.1-0.2-0.2-0.2-0.3
						c-0.1-0.2-0.1-0.3-0.1-0.5s0.1-0.3,0.2-0.5l0,0c-0.1,0-0.2,0-0.3,0s-0.1,0-0.2-0.1c-0.1,0-0.1-0.1-0.2-0.2
						c-0.1-0.1-0.1-0.1-0.1-0.2c0,0-0.1-0.1-0.1-0.2c0-0.1-0.1-0.1-0.1-0.2c0-0.1-0.1-0.1-0.1-0.2s-0.1-0.1-0.1-0.1l0.6-0.3
						c0.1,0.1,0.2,0.2,0.2,0.3c0.1,0.1,0.2,0.2,0.2,0.3c0.1,0.1,0.2,0.2,0.3,0.3c0.1,0,0.2,0,0.4-0.1l0.6-0.3L43.4,54l0.6-0.3
						l1.5,2.9L44.1,57.5z M43.6,56c-0.1,0.1-0.2,0.2-0.3,0.3c0,0.1,0,0.2,0.1,0.4c0.1,0.1,0.2,0.2,0.3,0.3c0.1,0,0.2,0,0.4-0.1
						l0.7-0.4l-0.4-0.8L43.6,56z"/>
				</g>
				<g>
					<path class="st0" d="M40.7,55.4l2.2,2.7l-0.7,0.3l-1.5-1.9l0,0l0.2,2.4l-0.7,0.3L40,55.7L40.7,55.4z"/>
				</g>
				<g>
					<path class="st0" d="M37.2,60L37,59.4l1.7-0.5l-0.2-0.7L37,58.7l-0.1-0.5l1.5-0.4L38.1,57l-1.7,0.5l-0.2-0.6l2.4-0.7l0.9,3.2
						L37.2,60z"/>
				</g>
				<g>
					<path class="st0" d="M35,60.4c-0.2,0-0.4,0-0.6,0c-0.2,0-0.4-0.1-0.5-0.2c-0.2-0.1-0.3-0.3-0.4-0.5c-0.1-0.2-0.2-0.4-0.2-0.7
						c0-0.2,0-0.5,0-0.7s0.1-0.4,0.2-0.6c0.1-0.2,0.2-0.3,0.4-0.4c0.2-0.1,0.4-0.2,0.6-0.2l1.4-0.2l0.5,3.3L35,60.4z M34.6,57.7
						c-0.1,0-0.2,0-0.3,0.1S34.1,58,34.1,58C34,58.1,34,58.2,34,58.3s0,0.3,0,0.5s0.1,0.3,0.1,0.4c0.1,0.1,0.1,0.2,0.2,0.3
						c0.1,0.1,0.2,0.1,0.3,0.2c0.1,0,0.3,0,0.5,0l0.5-0.1l-0.3-2.1L34.6,57.7z"/>
				</g>
				<g>
					<path class="st0" d="M27.8,59.8c0,0.1,0.1,0.1,0.2,0.2c0.1,0.1,0.1,0.1,0.2,0.1s0.2,0.1,0.3,0.1c0.2,0,0.3,0,0.4-0.1
						s0.2-0.1,0.3-0.2c0.1-0.1,0.1-0.2,0.2-0.4c0-0.1,0.1-0.3,0.1-0.4c0-0.1,0-0.3,0-0.4c0-0.1-0.1-0.3-0.1-0.4
						c-0.1-0.1-0.2-0.2-0.3-0.3c-0.1-0.1-0.2-0.1-0.4-0.1c-0.2,0-0.4,0-0.5,0.2c-0.1,0.1-0.2,0.3-0.3,0.5h-0.7
						c0-0.2,0.1-0.4,0.2-0.6c0.1-0.2,0.2-0.3,0.3-0.4c0.1-0.1,0.3-0.2,0.5-0.2c0.2-0.1,0.4-0.1,0.6-0.1c0.3,0,0.5,0.1,0.7,0.2
						c0.2,0.1,0.4,0.2,0.5,0.4s0.2,0.3,0.3,0.6c0.1,0.2,0.1,0.4,0.1,0.7c0,0.2-0.1,0.5-0.2,0.7s-0.2,0.4-0.4,0.5
						c-0.1,0.1-0.3,0.3-0.5,0.3c-0.2,0.1-0.4,0.1-0.7,0.1c-0.2,0-0.4,0-0.5-0.1c-0.2-0.1-0.3-0.1-0.4-0.3c-0.1-0.1-0.2-0.2-0.3-0.4
						c-0.1-0.2-0.1-0.3-0.1-0.5H28C27.7,59.6,27.8,59.7,27.8,59.8z"/>
				</g>
				<g>
					<path class="st0" d="M26.3,59.5c-0.1,0.2-0.3,0.4-0.4,0.5c-0.2,0.1-0.4,0.2-0.6,0.3s-0.4,0.1-0.7,0c-0.3,0-0.5-0.1-0.6-0.3
						c-0.2-0.1-0.3-0.3-0.4-0.5s-0.2-0.4-0.2-0.6c0-0.2,0-0.5,0-0.7s0.1-0.4,0.2-0.6c0.1-0.2,0.3-0.3,0.4-0.5
						c0.2-0.1,0.4-0.2,0.6-0.3c0.2,0,0.4,0,0.7,0c0.2,0,0.5,0.1,0.6,0.3c0.2,0.1,0.3,0.3,0.4,0.5s0.2,0.4,0.2,0.6c0,0.2,0,0.4,0,0.7
						C26.5,59.1,26.5,59.4,26.3,59.5z M25.9,58.4c0-0.1,0-0.3-0.1-0.4c-0.1-0.1-0.1-0.2-0.2-0.3s-0.2-0.1-0.4-0.2
						c-0.2,0-0.3,0-0.4,0s-0.2,0.1-0.3,0.2c-0.1,0.1-0.2,0.2-0.2,0.3c-0.1,0.1-0.1,0.3-0.1,0.4c0,0.1,0,0.3,0,0.4
						c0,0.1,0,0.3,0.1,0.4c0.1,0.1,0.1,0.2,0.2,0.3s0.2,0.1,0.4,0.2c0.2,0,0.3,0,0.4,0s0.2-0.1,0.3-0.2c0.1-0.1,0.2-0.2,0.2-0.3
						c0.1-0.1,0.1-0.3,0.1-0.4C25.9,58.6,25.9,58.5,25.9,58.4z"/>
				</g>
				<g>
					<path class="st0" d="M20.9,59.2c-0.2-0.1-0.4-0.1-0.5-0.2c-0.1-0.1-0.2-0.2-0.3-0.3C20,58.6,20,58.5,20,58.3
						c0-0.1,0-0.3,0.1-0.4c0-0.1,0.1-0.2,0.2-0.4c0.1-0.1,0.2-0.2,0.3-0.3c0.1-0.1,0.3-0.1,0.4-0.1c0.2,0,0.3,0,0.5,0.1l0.7,0.2
						l0.4-1.1l0.7,0.2l-1,3.2L20.9,59.2z M21.5,57.8c-0.1,0-0.2,0-0.2-0.1c-0.1,0-0.1,0-0.2,0s-0.1,0-0.2,0.1s-0.1,0.1-0.1,0.2
						c0,0.1,0,0.2,0,0.3s0,0.1,0.1,0.2c0,0.1,0.1,0.1,0.2,0.1s0.1,0.1,0.2,0.1l0.5,0.2l0.3-0.9L21.5,57.8z"/>
				</g>
				<g>
					<path class="st0" d="M19.4,58.8l-0.7-0.3L18.5,57l-1.2,0.9l-0.7-0.3l2-1.4L19,55l0.7,0.3l-0.5,1.2L19.4,58.8z"/>
				</g>
				<g>
					<path class="st0" d="M14.5,56.3c-0.1-0.1-0.2-0.2-0.3-0.3s-0.1-0.2-0.2-0.3c0-0.1,0-0.2,0-0.3s0.1-0.2,0.1-0.3
						c0.1-0.2,0.2-0.3,0.4-0.4c0.1-0.1,0.3-0.1,0.5-0.1l0,0c-0.1-0.1-0.1-0.1-0.1-0.2c0-0.1,0-0.1,0-0.2c0-0.1,0-0.2,0-0.2
						c0-0.1,0.1-0.2,0.1-0.2s0.1-0.1,0.1-0.2c0-0.1,0.1-0.1,0.1-0.2c0-0.1,0.1-0.1,0.1-0.2c0-0.1,0-0.1,0-0.2l0.6,0.4
						c0,0.1-0.1,0.2-0.1,0.4c-0.1,0.1-0.1,0.3-0.2,0.4c-0.1,0.2-0.1,0.3-0.1,0.4c0,0.1,0.1,0.2,0.3,0.3l0.6,0.4l0.7-1.1l0.6,0.4
						L16,57.2L14.5,56.3z M15.5,55.1C15.3,55,15.2,55,15.1,55c-0.1,0-0.2,0.1-0.3,0.2c-0.1,0.1-0.1,0.3-0.1,0.4
						c0,0.1,0.1,0.2,0.3,0.3l0.7,0.4l0.5-0.8L15.5,55.1z"/>
				</g>
				<g>
					<path class="st0" d="M12.4,54.9l1.9-2.7l0.6,0.4L13,55.3L12.4,54.9z"/>
				</g>
				<g>
					<path class="st0" d="M12.4,50.6c0.2,0.1,0.3,0.1,0.4,0.2c0.2,0.2,0.3,0.3,0.4,0.5c0.1,0.2,0.1,0.4,0.2,0.6c0,0.2,0,0.4-0.1,0.6
						c-0.1,0.2-0.2,0.4-0.4,0.6c-0.2,0.2-0.3,0.3-0.5,0.5c-0.2,0.1-0.4,0.2-0.6,0.2c-0.2,0-0.4,0-0.6-0.1c-0.2-0.1-0.4-0.2-0.6-0.3
						c-0.1-0.1-0.2-0.2-0.3-0.4c-0.1-0.1-0.1-0.3-0.2-0.5c0-0.2,0-0.3,0-0.5s0.1-0.3,0.2-0.5l0.5,0.5c-0.1,0.2-0.1,0.3-0.1,0.5
						s0.1,0.3,0.3,0.4c0.1,0.1,0.3,0.2,0.4,0.2c0.1,0,0.3,0,0.4,0c0.1,0,0.2-0.1,0.4-0.2c0.1-0.1,0.2-0.2,0.3-0.3s0.2-0.2,0.2-0.3
						c0.1-0.1,0.1-0.2,0.1-0.4c0-0.1,0-0.3,0-0.4c0-0.1-0.1-0.2-0.3-0.3C12.3,51,12.1,51,12,51c-0.2,0-0.4,0.1-0.5,0.3l0.6,0.5
						l-0.4,0.4l-1.1-0.9l1.2-1.4l0.4,0.3L12,50.5C12,50.6,12.2,50.6,12.4,50.6z"/>
				</g>
				<g>
					<path class="st0" d="M8.4,51.3l0.9-0.9l-0.9-1l-0.9,0.9L7,49.8l2.4-2.2l0.5,0.5l-1.1,1l0.9,1l1.1-1l0.5,0.5l-2.4,2.2L8.4,51.3z
						"/>
				</g>
				<g>
					<path class="st0" d="M7.1,48.9l-0.5,0.4L5,47.1l0.5-0.4L6,47.5L8.2,46l0.4,0.6l-2.2,1.6L7.1,48.9z"/>
				</g>
				<g>
					<path class="st0" d="M5.5,46.2c-0.2,0-0.5,0-0.7-0.1s-0.4-0.2-0.6-0.3s-0.3-0.3-0.4-0.5c-0.1-0.2-0.2-0.4-0.2-0.6s0-0.4,0-0.7
						c0.1-0.2,0.1-0.4,0.3-0.6C4,43.2,4.2,43,4.4,42.9c0.2-0.1,0.5-0.2,0.7-0.2s0.5,0,0.7,0.1c0.2,0,0.4,0.1,0.6,0.2
						c0.2,0.1,0.3,0.3,0.4,0.5C6.9,43.8,7,44,7,44.2s0,0.4,0,0.7c-0.1,0.2-0.1,0.4-0.3,0.6c-0.1,0.2-0.3,0.3-0.6,0.5
						C6,46.1,5.7,46.2,5.5,46.2z M6.4,45.2c0.1-0.1,0.2-0.3,0.2-0.5s0.1-0.3,0-0.5c0-0.2-0.1-0.3-0.2-0.5s-0.2-0.3-0.3-0.4
						c-0.1-0.1-0.3-0.2-0.4-0.2c-0.2,0-0.3-0.1-0.5,0c-0.2,0-0.4,0.1-0.5,0.2c-0.2,0.1-0.3,0.2-0.4,0.4c-0.1,0.1-0.2,0.3-0.2,0.5
						s-0.1,0.3,0,0.5c0,0.2,0.1,0.3,0.2,0.5s0.2,0.3,0.3,0.4c0.1,0.1,0.3,0.2,0.4,0.2c0.2,0,0.3,0.1,0.5,0c0.2,0,0.4-0.1,0.5-0.2
						S6.3,45.3,6.4,45.2z M5.4,43.4c0.1,0,0.2,0,0.3,0.1c0.1,0,0.2,0.1,0.3,0.2c0.1,0.1,0.1,0.1,0.2,0.2c0.1,0.1,0.1,0.3,0.1,0.4
						c0,0.1,0,0.3,0,0.4c0,0.1-0.1,0.2-0.2,0.3s-0.2,0.2-0.3,0.3c-0.1,0.1-0.3,0.1-0.4,0.1s-0.3,0-0.4,0s-0.2-0.1-0.3-0.2
						c-0.1-0.1-0.2-0.2-0.3-0.3c-0.1-0.1-0.1-0.2-0.1-0.3s0-0.2,0-0.3s0.1-0.2,0.1-0.3c0.1-0.1,0.1-0.2,0.2-0.2l0.2,0.3
						c-0.1,0.1-0.1,0.2-0.1,0.3s0,0.2,0.1,0.3C4.9,44.9,5,44.9,5.2,45c0.2,0,0.3,0,0.5-0.1c0.1,0,0.1-0.1,0.2-0.2
						C6,44.6,6,44.6,6,44.5c0-0.1,0-0.1,0-0.2c0-0.1,0-0.2-0.1-0.2c-0.1-0.1-0.1-0.2-0.2-0.2s-0.2,0-0.3,0l-0.2-0.3
						C5.2,43.4,5.3,43.4,5.4,43.4z"/>
				</g>
				<g>
					<path class="st0" d="M2.1,41.5l2.6-2.4L5,39.8l-0.6,0.5l0.5,1.1h0.8L6,42.1l-3.5,0.1L2.1,41.5z M3.9,40.7l-1,0.8l0,0l1.3-0.1
						L3.9,40.7z"/>
				</g>
				<g>
					<path class="st0" d="M1.3,39.1l2.6-0.7l-0.4-1.5L4,36.6l0.6,2.2l-3.2,0.9L1.3,39.1z"/>
				</g>
				<g>
					<path class="st0" d="M0.6,36.2l2.7-0.5L3,34.1L3.5,34l0.4,2.3l-3.3,0.6L0.6,36.2z"/>
				</g>
				<g>
					<path class="st0" d="M0,30.7c0-0.1,0-0.3,0.1-0.4c0-0.1,0.1-0.2,0.2-0.3c0.1-0.1,0.2-0.2,0.3-0.2s0.2-0.1,0.4-0.1
						s0.4,0,0.5,0.1s0.3,0.2,0.3,0.4l0,0c0-0.1,0.1-0.2,0.1-0.2L2,29.9c0.1,0,0.1-0.1,0.2-0.1c0.1,0,0.2,0,0.2,0c0.1,0,0.1,0,0.2,0
						c0.1,0,0.1,0,0.2,0s0.1,0,0.2,0c0.1,0,0.1,0,0.2-0.1v0.7c-0.1,0-0.2,0.1-0.4,0.1c-0.1,0-0.3,0-0.4,0.1c-0.2,0-0.3,0.1-0.4,0.2
						c0.1-0.1,0,0,0,0.2v0.7h1.3v0.7L0,32.5V30.7z M1.5,31c0-0.2,0-0.3-0.1-0.4S1.2,30.5,1,30.5s-0.3,0-0.3,0.1
						c-0.1,0.1-0.1,0.2-0.1,0.4v0.8h0.9V31z"/>
				</g>
				<g>
					<path class="st0" d="M0.1,28.3l3.3,0.2v0.7L0,29L0.1,28.3z"/>
				</g>
				<g>
					<path class="st0" d="M3.6,26c0,0.2,0.1,0.3,0,0.5c0,0.3-0.1,0.5-0.2,0.7c-0.1,0.2-0.3,0.3-0.4,0.5c-0.2,0.1-0.4,0.2-0.6,0.2
						s-0.4,0-0.7,0c-0.2,0-0.5-0.1-0.7-0.2s-0.4-0.2-0.5-0.4c-0.1-0.2-0.2-0.3-0.3-0.6c-0.1-0.2-0.1-0.4,0-0.7
						c0-0.2,0.1-0.3,0.1-0.5c0.1-0.1,0.2-0.3,0.3-0.4s0.3-0.2,0.4-0.3s0.3-0.1,0.5-0.1l-0.1,0.7c-0.2,0-0.3,0.1-0.4,0.2
						c-0.1,0.1-0.2,0.3-0.2,0.4c0,0.2,0,0.3,0,0.4s0.1,0.2,0.2,0.3c0.1,0.1,0.2,0.2,0.3,0.2C1.4,27,1.6,27,1.7,27s0.3,0,0.4,0
						s0.3,0,0.4-0.1c0.1-0.1,0.2-0.1,0.3-0.2c0.2,0,0.2-0.2,0.3-0.3c0-0.2,0-0.4-0.1-0.6c-0.1-0.1-0.3-0.2-0.5-0.3l-0.1,0.7
						l-0.5-0.1L2,24.7L3.8,25l-0.1,0.5H3.3C3.5,25.6,3.6,25.8,3.6,26z"/>
				</g>
				<g>
					<path class="st0" d="M0.9,22.9l1.2,0.3L2.5,22l-1.2-0.3L1.5,21l3.2,0.9l-0.2,0.7l-1.4-0.4l-0.4,1.3l1.4,0.4l-0.2,0.7l-3.2-0.9
						L0.9,22.9z"/>
				</g>
				<g>
					<path class="st0" d="M2.2,20.6l-0.6-0.2l1-2.5l0.6,0.2L2.9,19l2.5,1l-0.3,0.7l-2.5-1L2.2,20.6z"/>
				</g>
				<g>
					<path class="st0" d="M5.4,17.9c0.1,0,0.2,0,0.2-0.1c0.1,0,0.1-0.1,0.2-0.2c0.1,0,0.2,0,0.2-0.1s0.1-0.1,0.1-0.2s0-0.1,0-0.2
						s0-0.1,0-0.2S6,16.8,6,16.7c-0.1,0-0.2-0.1-0.2,0c-0.1,0-0.2,0.1-0.2,0.1c-0.1,0.1-0.2,0.1-0.2,0.2S5.1,17.2,5,17.3
						c-0.1,0.1-0.2,0.2-0.3,0.3c-0.1,0.1-0.2,0.1-0.3,0.2c-0.1,0-0.2,0.1-0.3,0.1c-0.1,0-0.2,0-0.4-0.1s-0.3-0.2-0.3-0.3
						c-0.1-0.1-0.1-0.3-0.1-0.4s0-0.3,0-0.4s0.1-0.3,0.2-0.4c0.1-0.2,0.2-0.3,0.3-0.4s0.2-0.2,0.4-0.3c0.1-0.1,0.3-0.1,0.4-0.1
						c0.2,0,0.3,0,0.5,0.1l-0.3,0.6c-0.1,0-0.2-0.1-0.2-0.1c-0.1,0-0.1,0-0.2,0.1c-0.1,0-0.1,0.1-0.2,0.1c0,0.1-0.1,0.1-0.1,0.2
						s0,0.1-0.1,0.2c0,0.1,0,0.1,0,0.2s0,0.1,0,0.2l0.1,0.1c0.1,0,0.1,0,0.2,0c0,0,0.1,0,0.2-0.1c0.1,0,0.1-0.1,0.2-0.2
						s0.2-0.2,0.4-0.4c0,0,0.1-0.1,0.2-0.2s0.2-0.2,0.3-0.2c-0.1-0.1,0-0.1,0.2-0.2c0.1,0,0.3,0,0.5,0.1c0.1,0.1,0.2,0.2,0.3,0.3
						c0.1,0.1,0.1,0.2,0.2,0.4c0,0.1,0,0.3,0,0.5s-0.1,0.4-0.2,0.6s-0.2,0.3-0.3,0.4c-0.1,0.1-0.3,0.2-0.4,0.3
						c-0.1,0.1-0.3,0.1-0.5,0.1s-0.3-0.1-0.5-0.1l0.3-0.6C5.2,17.9,5.3,17.9,5.4,17.9z"/>
				</g>
				<g>
					<path class="st0" d="M6.4,11.8c0.1-0.1,0.2-0.2,0.3-0.3c0.1-0.1,0.2-0.1,0.3-0.1c0.1,0,0.2,0,0.3,0s0.2,0.1,0.3,0.2
						C7.8,11.7,8,11.8,8,11.9c0.1,0.2,0.1,0.3,0,0.5l0,0c0.1-0.1,0.1-0.1,0.2-0.1c0.1,0,0.2,0,0.2,0c0.1,0,0.2,0,0.2,0.1
						c0.1,0,0.2,0.1,0.2,0.1s0.1,0.1,0.2,0.1c0.1,0,0.1,0.1,0.2,0.1c0.1,0,0.1,0.1,0.2,0.1c0.1,0,0.1,0,0.2,0l-0.4,0.6
						c-0.1,0-0.2-0.1-0.3-0.2C8.8,13.1,8.7,13,8.5,13c-0.1,0-0.3,0-0.4,0c-0.1,0-0.2,0.1-0.3,0.2l-0.4,0.6l1,0.8L8,15.2l-2.6-2
						L6.4,11.8z M7.4,12.9c0.1-0.1,0.1-0.3,0.1-0.4c0-0.1-0.1-0.2-0.2-0.3s-0.2-0.1-0.4-0.1c-0.1,0-0.2,0.1-0.3,0.2l-0.5,0.6
						l0.7,0.6L7.4,12.9z"/>
				</g>
				<g>
					<path class="st0" d="M9.2,8.5L9.7,9l-1.2,1.3L9,10.7l1.1-1.2l0.4,0.4l-1.1,1.2l0.6,0.6l1.2-1.3l0.4,0.4l-1.7,1.8l-2.4-2.3
						L9.2,8.5z"/>
				</g>
				<g>
					<path class="st0" d="M11.9,9.5c0.1,0,0.2,0,0.2,0c0.1,0,0.2,0,0.2-0.1c0.1,0,0.2-0.1,0.2-0.2l0.1-0.1c0-0.1,0.1-0.1,0.1-0.2
						c0-0.1,0-0.1,0-0.2c0-0.1,0-0.1-0.1-0.2c-0.1-0.1-0.1-0.1-0.2-0.1c-0.1,0-0.2,0-0.3,0s-0.2,0.1-0.3,0.1
						c-0.1,0.1-0.2,0.1-0.3,0.2c-0.1,0.1-0.2,0.1-0.3,0.1C11.3,9,11.1,9,11,9s-0.2,0-0.3-0.1c-0.1,0-0.2-0.1-0.3-0.2
						c-0.1-0.1-0.2-0.3-0.2-0.4c0-0.1,0-0.3,0-0.4s0.1-0.3,0.2-0.4c0.1-0.1,0.2-0.2,0.3-0.3C10.8,7.1,11,7,11.1,6.9
						c0.1-0.1,0.3-0.1,0.4-0.1c0.2,0,0.3,0,0.4,0.1C12,7,12.2,7.1,12.3,7.2l-0.5,0.5c-0.1-0.1-0.1-0.1-0.2-0.1c-0.1,0-0.1,0-0.2,0
						c-0.1,0-0.1,0-0.2,0.1c-0.1,0-0.1,0.1-0.2,0.1l-0.1,0.1c0,0-0.1,0.1-0.1,0.2c0,0.1,0,0.1,0,0.2c0,0.1,0,0.1,0.1,0.2L11,8.6
						c0,0,0.1,0,0.2,0c0.1,0,0.2-0.1,0.3-0.1c0.1-0.1,0.3-0.1,0.5-0.2c0.1,0,0.1-0.1,0.2-0.1c0.1,0,0.2-0.1,0.3-0.1s0.3,0,0.4,0
						c0.1,0,0.3,0.1,0.4,0.3c0.1,0.1,0.2,0.2,0.2,0.4c0,0.1,0,0.3,0,0.4c0,0.1-0.1,0.3-0.2,0.4c-0.1,0.2-0.2,0.3-0.4,0.4
						c-0.1,0.1-0.3,0.2-0.4,0.3c-0.2,0.1-0.3,0.1-0.5,0.1s-0.3,0-0.5-0.1s-0.3-0.2-0.4-0.3l0.5-0.5C11.7,9.4,11.8,9.5,11.9,9.5z"/>
				</g>
				<g>
					<path class="st0" d="M14.4,4.5L14.8,5l-1.4,1l0.4,0.6L15,5.7l0.3,0.5L14,7l0.5,0.7l1.5-1l0.3,0.5l-2.1,1.4l-1.9-2.7L14.4,4.5z"
						/>
				</g>
				<g>
					<path class="st0" d="M16.7,3.3c0.1-0.1,0.3-0.1,0.4-0.1s0.2,0,0.4,0c0.1,0,0.2,0.1,0.3,0.2C17.9,3.5,18,3.6,18,3.7
						c0.1,0.2,0.1,0.3,0.1,0.5S18,4.5,17.9,4.7l0,0c0.1,0,0.2,0,0.3,0c0.1,0,0.1,0,0.2,0.1c0.1,0,0.1,0.1,0.2,0.2s0.1,0.1,0.1,0.2
						c0,0,0.1,0.1,0.1,0.2s0.1,0.1,0.1,0.2S19,5.7,19,5.8s0.1,0.1,0.1,0.1L18.5,6c-0.1-0.1-0.2-0.2-0.2-0.3
						c-0.1-0.1-0.2-0.2-0.2-0.3c-0.1-0.1-0.2-0.2-0.3-0.3c-0.1,0-0.2,0-0.4,0.1l-0.6,0.3l0.6,1.1L16.6,7l-1.5-2.9L16.7,3.3z
						 M17.1,4.7c0.1-0.1,0.2-0.2,0.3-0.3c0-0.1,0-0.2-0.1-0.4c-0.1-0.1-0.2-0.2-0.3-0.3c-0.1,0-0.2,0-0.4,0.1L16,4.3l0.4,0.8
						L17.1,4.7z"/>
				</g>
				<g>
					<path class="st0" d="M20.1,5.3l-2.2-2.7l0.7-0.3l1.5,1.9l0,0L20,1.8l0.7-0.3L20.9,5L20.1,5.3z"/>
				</g>
				<g>
					<path class="st0" d="M23.6,0.7l0.2,0.6l-1.7,0.5l0.2,0.7l1.5-0.4L24,2.6L22.4,3l0.2,0.8l1.7-0.5l0.2,0.6l-2.4,0.7l-0.9-3.2
						L23.6,0.7z"/>
				</g>
				<g>
					<path class="st0" d="M25.8,0.4c0.2,0,0.4,0,0.6,0s0.4,0.1,0.5,0.2s0.3,0.3,0.4,0.5s0.2,0.4,0.2,0.7c0,0.2,0,0.5,0,0.7
						s-0.1,0.4-0.2,0.6c-0.1,0.2-0.2,0.3-0.4,0.4c-0.2,0.1-0.4,0.2-0.6,0.2l-1.4,0.2l-0.5-3.3L25.8,0.4z M26.2,3
						c0.1,0,0.2,0,0.3-0.1c0.1,0,0.2-0.1,0.2-0.2c0.1-0.1,0.1-0.2,0.1-0.3s0-0.3,0-0.5s-0.1-0.3-0.1-0.4c-0.1-0.1-0.1-0.2-0.2-0.3
						S26.3,1,26.2,1c-0.1,0-0.3,0-0.5,0l-0.5,0.1l0.3,2.1L26.2,3z"/>
				</g>
			</g>
		</g>
	</g>
</g>
</svg>
