<?xml version="1.0" encoding="utf-8"?>
<!-- Generator: Adobe Illustrator 27.8.1, SVG Export Plug-In . SVG Version: 6.00 Build 0)  -->
<svg version="1.1" id="Ebene_1" xmlns="http://www.w3.org/2000/svg" xmlns:xlink="http://www.w3.org/1999/xlink" x="0px" y="0px"
	 viewBox="0 0 512 512" style="enable-background:new 0 0 512 512;" xml:space="preserve">
<style type="text/css">
	.st0{fill:#141414;}
</style>
<path class="st0" d="M81,274.7C90.4,363,165.3,432,256,432c24.6,0,49-5.1,71.5-15.2c-40.3-16.5-84.1-38.2-127.8-63.4
	C157,328.9,115.8,301.5,81,274.7z M492.7,339.5c-8.5-11.3-20-23.8-34-37c-2.7,11.6-6.4,23-11,34c28.7,29.5,33.2,45.3,32.2,48.5
	c-2,2.2-17,6.9-58.1-3.5c-5.9-1.5-12.3-3.3-19.3-5.5c-4.5-1.4-9.1-2.9-13.8-4.5c7.4-8.4,13.9-17.6,19.5-27.2
	c0.2-0.3,0.4-0.6,0.5-0.9C424,316.8,432,286.7,432,256c0-6.3-0.3-12.7-1-19c-9.6-88.2-84.4-157-175-157
	c-38.4,0-75.8,12.6-106.4,35.9c-18.5,14.1-34.1,31.7-45.8,51.8c-0.2,0.3-0.3,0.6-0.5,0.9c-5.6,9.7-10.2,19.9-13.8,30.5
	c-3.7-3.2-7.3-6.5-10.8-9.7c-5.4-5-10.2-9.6-14.4-14c-29.6-30.3-33.1-45.6-32.2-48.4c2.2-2.4,18.1-6.5,58.1,3.6
	c7.2-9.5,15.3-18.4,24-26.6c-18.9-5.6-35.8-9.3-50.1-11c-30.7-3.5-50.8,2.5-59.8,18c-3.2,5.6-6.3,15.1-2.7,28.6
	C7,159.7,26.1,184,53.2,209.5c8.6,8.1,18.1,16.4,28.1,24.6c7.3,6,15,12.1,22.9,18.1c5.3,4,10.7,8,16.2,12s11.1,7.9,16.7,11.8
	c25.4,17.6,52.3,34.5,78.6,49.7c9.6,5.5,19.1,10.8,28.6,16c9.5,5.2,19,10.1,28.4,14.8c21.9,11,43.4,20.9,63.9,29.4
	c8.8,3.7,17.4,7,25.8,10.2c11.9,4.4,23.4,8.3,34.3,11.6l1.1,0.3c25.7,7.7,47.4,11.7,64.5,12h1.7c21.6,0,36.3-6.4,43.6-19
	C516.7,385.4,511.7,364.7,492.7,339.5L492.7,339.5z"/>
</svg>
